<mxfile host="app.diagrams.net" modified="2023-06-14T02:51:41.251Z" agent="Mozilla/5.0 (Windows NT 10.0; Win64; x64) AppleWebKit/537.36 (KHTML, like Gecko) Chrome/114.0.0.0 Safari/537.36 Edg/114.0.1823.43" etag="5DJKH24jfPcq19fLSSBc" version="21.3.8" type="github">
  <diagram id="a2Mxp7Lxk_8T9kjwv7qg" name="第 1 页">
    <mxGraphModel dx="3309" dy="4434" grid="1" gridSize="10" guides="1" tooltips="1" connect="1" arrows="1" fold="1" page="1" pageScale="1" pageWidth="827" pageHeight="1169" math="0" shadow="0">
      <root>
        <mxCell id="0" />
        <mxCell id="1" parent="0" />
        <mxCell id="ZHG9rsB81t30PeYx90nw-3" style="edgeStyle=orthogonalEdgeStyle;rounded=0;orthogonalLoop=1;jettySize=auto;html=1;exitX=1;exitY=1;exitDx=0;exitDy=0;" parent="1" source="ZHG9rsB81t30PeYx90nw-2" edge="1">
          <mxGeometry relative="1" as="geometry">
            <mxPoint x="4010" y="3380" as="targetPoint" />
          </mxGeometry>
        </mxCell>
        <UserObject label="" plantUmlData="{&#xa;  &quot;data&quot;: &quot;@startuml\n\n!define AWSPUML https://raw.githubusercontent.com/awslabs/aws-icons-for-plantuml/v14.0/dist\n\n!define HEADER1(color) &lt;font color=color&gt;&lt;b&gt;\n!define HEADER2(color) &lt;font color=color&gt;&lt;size:14&gt;&lt;b&gt;\n!define MONOFONT &lt;font face=\&quot;Monaco\&quot;&gt;\n\nskinparam defaultTextAlignment center\nskinparam sequence {\n    ArrowColor #707070\n    ActorBorderColor #707070\n}\n\nactor 用户 as User\nparticipant \&quot;浏览器\&quot; as Browser\nparticipant \&quot;应用服务器\&quot; as AppServer\nparticipant \&quot;区块链节点\&quot; as BlockchainNode\ndatabase \&quot;食品信息管理系统\&quot; as FoodSys\ndatabase \&quot;验证系统\&quot; as VerifySys\ndatabase \&quot;数据查询系统\&quot; as QuerySys\n\nUser -&gt; Browser: 访问平台前端\nUser -&gt; Browser: 输入业务请求\nBrowser -&gt; AppServer: 发送业务请求\nAppServer -&gt; BlockchainNode: 发送请求至区块链节点\nBlockchainNode -&gt; BlockchainNode: 验证请求\nBlockchainNode -&gt; BlockchainNode: 执行智能合约\nBlockchainNode -&gt; BlockchainNode: 在区块链上存储溯源数据\nBlockchainNode -&gt; AppServer: 返回处理结果\nAppServer -&gt; Browser: 发送响应至前端\nBrowser -&gt; User: 显示响应结果给用户\n\nAppServer -&gt; FoodSys: 管理食品溯源信息\nAppServer -&gt; VerifySys: 验证溯源数据\nAppServer -&gt; QuerySys: 查询溯源数据\n\ngroup 数据管理\n    AppServer --&gt; FoodSys: 管理食品溯源信息\n    FoodSys --&gt; BlockchainNode: 在区块链上存储溯源数据\nend\n\ngroup 数据验证\n    AppServer --&gt; VerifySys: 验证溯源数据\nend\n\ngroup 数据查询\n    AppServer --&gt; QuerySys: 查询溯源数据\nend\n\n@enduml\n&quot;,&#xa;  &quot;format&quot;: &quot;svg&quot;&#xa;}" id="ZHG9rsB81t30PeYx90nw-2">
          <mxCell style="shape=image;noLabel=1;verticalAlign=top;aspect=fixed;imageAspect=0;image=data:image/svg+xml,PD94bWwgdmVyc2lvbj0iMS4wIiBlbmNvZGluZz0idXMtYXNjaWkiIHN0YW5kYWxvbmU9Im5vIj8+PHN2ZyB4bWxucz0iaHR0cDovL3d3dy53My5vcmcvMjAwMC9zdmciIHhtbG5zOnhsaW5rPSJodHRwOi8vd3d3LnczLm9yZy8xOTk5L3hsaW5rIiBjb250ZW50U3R5bGVUeXBlPSJ0ZXh0L2NzcyIgaGVpZ2h0PSI3ODJweCIgcHJlc2VydmVBc3BlY3RSYXRpbz0ibm9uZSIgc3R5bGU9IndpZHRoOjg0NnB4O2hlaWdodDo3ODJweDtiYWNrZ3JvdW5kOiNGRkZGRkY7IiB2ZXJzaW9uPSIxLjEiIHZpZXdCb3g9IjAgMCA4NDYgNzgyIiB3aWR0aD0iODQ2cHgiIHpvb21BbmRQYW49Im1hZ25pZnkiPjxkZWZzLz48Zz48cmVjdCBmaWxsPSJub25lIiBoZWlnaHQ9IjcxLjc0MjIiIHN0eWxlPSJzdHJva2U6IzAwMDAwMDtzdHJva2Utd2lkdGg6MS41OyIgd2lkdGg9IjQ0MiIgeD0iMjI2IiB5PSI0OTguODY3MiIvPjxyZWN0IGZpbGw9Im5vbmUiIGhlaWdodD0iNDMuODI4MSIgc3R5bGU9InN0cm9rZTojMDAwMDAwO3N0cm9rZS13aWR0aDoxLjU7IiB3aWR0aD0iNTE0IiB4PSIyMjYiIHk9IjU4NC42MDk0Ii8+PHJlY3QgZmlsbD0ibm9uZSIgaGVpZ2h0PSI0My44MjgxIiBzdHlsZT0ic3Ryb2tlOiMwMDAwMDA7c3Ryb2tlLXdpZHRoOjEuNTsiIHdpZHRoPSI2MTQiIHg9IjIyNiIgeT0iNjQyLjQzNzUiLz48bGluZSBzdHlsZT0ic3Ryb2tlOiMxODE4MTg7c3Ryb2tlLXdpZHRoOjAuNTtzdHJva2UtZGFzaGFycmF5OjUuMCw1LjA7IiB4MT0iMjIiIHgyPSIyMiIgeTE9Ijc5Ljk4NDQiIHkyPSI3MDMuMjY1NiIvPjxsaW5lIHN0eWxlPSJzdHJva2U6IzE4MTgxODtzdHJva2Utd2lkdGg6MC41O3N0cm9rZS1kYXNoYXJyYXk6NS4wLDUuMDsiIHgxPSIxNjMiIHgyPSIxNjMiIHkxPSI3OS45ODQ0IiB5Mj0iNzAzLjI2NTYiLz48bGluZSBzdHlsZT0ic3Ryb2tlOiMxODE4MTg7c3Ryb2tlLXdpZHRoOjAuNTtzdHJva2UtZGFzaGFycmF5OjUuMCw1LjA7IiB4MT0iMjc4IiB4Mj0iMjc4IiB5MT0iNzkuOTg0NCIgeTI9IjcwMy4yNjU2Ii8+PGxpbmUgc3R5bGU9InN0cm9rZTojMTgxODE4O3N0cm9rZS13aWR0aDowLjU7c3Ryb2tlLWRhc2hhcnJheTo1LjAsNS4wOyIgeDE9IjQzMiIgeDI9IjQzMiIgeTE9Ijc5Ljk4NDQiIHkyPSI3MDMuMjY1NiIvPjxsaW5lIHN0eWxlPSJzdHJva2U6IzE4MTgxODtzdHJva2Utd2lkdGg6MC41O3N0cm9rZS1kYXNoYXJyYXk6NS4wLDUuMDsiIHgxPSI1OTkiIHgyPSI1OTkiIHkxPSI3OS45ODQ0IiB5Mj0iNzAzLjI2NTYiLz48bGluZSBzdHlsZT0ic3Ryb2tlOiMxODE4MTg7c3Ryb2tlLXdpZHRoOjAuNTtzdHJva2UtZGFzaGFycmF5OjUuMCw1LjA7IiB4MT0iNjk5IiB4Mj0iNjk5IiB5MT0iNzkuOTg0NCIgeTI9IjcwMy4yNjU2Ii8+PGxpbmUgc3R5bGU9InN0cm9rZTojMTgxODE4O3N0cm9rZS13aWR0aDowLjU7c3Ryb2tlLWRhc2hhcnJheTo1LjAsNS4wOyIgeDE9Ijc4NSIgeDI9Ijc4NSIgeTE9Ijc5Ljk4NDQiIHkyPSI3MDMuMjY1NiIvPjx0ZXh0IGZpbGw9IiMwMDAwMDAiIGZvbnQtZmFtaWx5PSJzYW5zLXNlcmlmIiBmb250LXNpemU9IjE0IiBsZW5ndGhBZGp1c3Q9InNwYWNpbmciIHRleHRMZW5ndGg9IjI4IiB4PSI1IiB5PSI3OC4yMzQ0Ij4mIzI5OTkyOyYjMjUxNDM7PC90ZXh0PjxlbGxpcHNlIGN4PSIyMiIgY3k9IjEzLjUiIGZpbGw9IiNFMkUyRjAiIHJ4PSI4IiByeT0iOCIgc3R5bGU9InN0cm9rZTojNzA3MDcwO3N0cm9rZS13aWR0aDowLjU7Ii8+PHBhdGggZD0iTTIyLDIxLjUgTDIyLDQ4LjUgTTksMjkuNSBMMzUsMjkuNSBNMjIsNDguNSBMOSw2My41IE0yMiw0OC41IEwzNSw2My41ICIgZmlsbD0ibm9uZSIgc3R5bGU9InN0cm9rZTojNzA3MDcwO3N0cm9rZS13aWR0aDowLjU7Ii8+PHRleHQgZmlsbD0iIzAwMDAwMCIgZm9udC1mYW1pbHk9InNhbnMtc2VyaWYiIGZvbnQtc2l6ZT0iMTQiIGxlbmd0aEFkanVzdD0ic3BhY2luZyIgdGV4dExlbmd0aD0iMjgiIHg9IjUiIHk9IjcxNS41Ij4mIzI5OTkyOyYjMjUxNDM7PC90ZXh0PjxlbGxpcHNlIGN4PSIyMiIgY3k9IjcyNS43NSIgZmlsbD0iI0UyRTJGMCIgcng9IjgiIHJ5PSI4IiBzdHlsZT0ic3Ryb2tlOiM3MDcwNzA7c3Ryb2tlLXdpZHRoOjAuNTsiLz48cGF0aCBkPSJNMjIsNzMzLjc1IEwyMiw3NjAuNzUgTTksNzQxLjc1IEwzNSw3NDEuNzUgTTIyLDc2MC43NSBMOSw3NzUuNzUgTTIyLDc2MC43NSBMMzUsNzc1Ljc1ICIgZmlsbD0ibm9uZSIgc3R5bGU9InN0cm9rZTojNzA3MDcwO3N0cm9rZS13aWR0aDowLjU7Ii8+PHJlY3QgZmlsbD0iI0UyRTJGMCIgaGVpZ2h0PSIyOC45ODQ0IiByeD0iMi41IiByeT0iMi41IiBzdHlsZT0ic3Ryb2tlOiMxODE4MTg7c3Ryb2tlLXdpZHRoOjAuNTsiIHdpZHRoPSI1NiIgeD0iMTM1IiB5PSI1MCIvPjx0ZXh0IGZpbGw9IiMwMDAwMDAiIGZvbnQtZmFtaWx5PSJzYW5zLXNlcmlmIiBmb250LXNpemU9IjE0IiBsZW5ndGhBZGp1c3Q9InNwYWNpbmciIHRleHRMZW5ndGg9IjQyIiB4PSIxNDIiIHk9IjcwLjIzNDQiPiYjMjc5ODM7JiMzNTI3MjsmIzIyMTIwOzwvdGV4dD48cmVjdCBmaWxsPSIjRTJFMkYwIiBoZWlnaHQ9IjI4Ljk4NDQiIHJ4PSIyLjUiIHJ5PSIyLjUiIHN0eWxlPSJzdHJva2U6IzE4MTgxODtzdHJva2Utd2lkdGg6MC41OyIgd2lkdGg9IjU2IiB4PSIxMzUiIHk9IjcwMi4yNjU2Ii8+PHRleHQgZmlsbD0iIzAwMDAwMCIgZm9udC1mYW1pbHk9InNhbnMtc2VyaWYiIGZvbnQtc2l6ZT0iMTQiIGxlbmd0aEFkanVzdD0ic3BhY2luZyIgdGV4dExlbmd0aD0iNDIiIHg9IjE0MiIgeT0iNzIyLjUiPiYjMjc5ODM7JiMzNTI3MjsmIzIyMTIwOzwvdGV4dD48cmVjdCBmaWxsPSIjRTJFMkYwIiBoZWlnaHQ9IjI4Ljk4NDQiIHJ4PSIyLjUiIHJ5PSIyLjUiIHN0eWxlPSJzdHJva2U6IzE4MTgxODtzdHJva2Utd2lkdGg6MC41OyIgd2lkdGg9Ijg0IiB4PSIyMzYiIHk9IjUwIi8+PHRleHQgZmlsbD0iIzAwMDAwMCIgZm9udC1mYW1pbHk9InNhbnMtc2VyaWYiIGZvbnQtc2l6ZT0iMTQiIGxlbmd0aEFkanVzdD0ic3BhY2luZyIgdGV4dExlbmd0aD0iNzAiIHg9IjI0MyIgeT0iNzAuMjM0NCI+JiMyNDIxMjsmIzI5OTkyOyYjMjYzODE7JiMyMTE1MzsmIzIyMTIwOzwvdGV4dD48cmVjdCBmaWxsPSIjRTJFMkYwIiBoZWlnaHQ9IjI4Ljk4NDQiIHJ4PSIyLjUiIHJ5PSIyLjUiIHN0eWxlPSJzdHJva2U6IzE4MTgxODtzdHJva2Utd2lkdGg6MC41OyIgd2lkdGg9Ijg0IiB4PSIyMzYiIHk9IjcwMi4yNjU2Ii8+PHRleHQgZmlsbD0iIzAwMDAwMCIgZm9udC1mYW1pbHk9InNhbnMtc2VyaWYiIGZvbnQtc2l6ZT0iMTQiIGxlbmd0aEFkanVzdD0ic3BhY2luZyIgdGV4dExlbmd0aD0iNzAiIHg9IjI0MyIgeT0iNzIyLjUiPiYjMjQyMTI7JiMyOTk5MjsmIzI2MzgxOyYjMjExNTM7JiMyMjEyMDs8L3RleHQ+PHJlY3QgZmlsbD0iI0UyRTJGMCIgaGVpZ2h0PSIyOC45ODQ0IiByeD0iMi41IiByeT0iMi41IiBzdHlsZT0ic3Ryb2tlOiMxODE4MTg7c3Ryb2tlLXdpZHRoOjAuNTsiIHdpZHRoPSI4NCIgeD0iMzkwIiB5PSI1MCIvPjx0ZXh0IGZpbGw9IiMwMDAwMDAiIGZvbnQtZmFtaWx5PSJzYW5zLXNlcmlmIiBmb250LXNpemU9IjE0IiBsZW5ndGhBZGp1c3Q9InNwYWNpbmciIHRleHRMZW5ndGg9IjcwIiB4PSIzOTciIHk9IjcwLjIzNDQiPiYjMjEzMDY7JiMyMjM1OTsmIzM4MTQyOyYjMzM0MTA7JiMyODg1Nzs8L3RleHQ+PHJlY3QgZmlsbD0iI0UyRTJGMCIgaGVpZ2h0PSIyOC45ODQ0IiByeD0iMi41IiByeT0iMi41IiBzdHlsZT0ic3Ryb2tlOiMxODE4MTg7c3Ryb2tlLXdpZHRoOjAuNTsiIHdpZHRoPSI4NCIgeD0iMzkwIiB5PSI3MDIuMjY1NiIvPjx0ZXh0IGZpbGw9IiMwMDAwMDAiIGZvbnQtZmFtaWx5PSJzYW5zLXNlcmlmIiBmb250LXNpemU9IjE0IiBsZW5ndGhBZGp1c3Q9InNwYWNpbmciIHRleHRMZW5ndGg9IjcwIiB4PSIzOTciIHk9IjcyMi41Ij4mIzIxMzA2OyYjMjIzNTk7JiMzODE0MjsmIzMzNDEwOyYjMjg4NTc7PC90ZXh0Pjx0ZXh0IGZpbGw9IiMwMDAwMDAiIGZvbnQtZmFtaWx5PSJzYW5zLXNlcmlmIiBmb250LXNpemU9IjE0IiBsZW5ndGhBZGp1c3Q9InNwYWNpbmciIHRleHRMZW5ndGg9IjExMiIgeD0iNTQwIiB5PSI3OC4yMzQ0Ij4mIzM5MTM1OyYjMjE2OTc7JiMyMDQ0OTsmIzI0Njg3OyYjMzE2NDk7JiMyOTcwMjsmIzMxOTk1OyYjMzI0Nzk7PC90ZXh0PjxwYXRoIGQ9Ik01ODEsMjkgQzU4MSwxOSA1OTksMTkgNTk5LDE5IEM1OTksMTkgNjE3LDE5IDYxNywyOSBMNjE3LDU1IEM2MTcsNjUgNTk5LDY1IDU5OSw2NSBDNTk5LDY1IDU4MSw2NSA1ODEsNTUgTDU4MSwyOSAiIGZpbGw9IiNFMkUyRjAiIHN0eWxlPSJzdHJva2U6IzE4MTgxODtzdHJva2Utd2lkdGg6MS41OyIvPjxwYXRoIGQ9Ik01ODEsMjkgQzU4MSwzOSA1OTksMzkgNTk5LDM5IEM1OTksMzkgNjE3LDM5IDYxNywyOSAiIGZpbGw9Im5vbmUiIHN0eWxlPSJzdHJva2U6IzE4MTgxODtzdHJva2Utd2lkdGg6MS41OyIvPjx0ZXh0IGZpbGw9IiMwMDAwMDAiIGZvbnQtZmFtaWx5PSJzYW5zLXNlcmlmIiBmb250LXNpemU9IjE0IiBsZW5ndGhBZGp1c3Q9InNwYWNpbmciIHRleHRMZW5ndGg9IjExMiIgeD0iNTQwIiB5PSI3MTUuNSI+JiMzOTEzNTsmIzIxNjk3OyYjMjA0NDk7JiMyNDY4NzsmIzMxNjQ5OyYjMjk3MDI7JiMzMTk5NTsmIzMyNDc5OzwvdGV4dD48cGF0aCBkPSJNNTgxLDcyNy4yNSBDNTgxLDcxNy4yNSA1OTksNzE3LjI1IDU5OSw3MTcuMjUgQzU5OSw3MTcuMjUgNjE3LDcxNy4yNSA2MTcsNzI3LjI1IEw2MTcsNzUzLjI1IEM2MTcsNzYzLjI1IDU5OSw3NjMuMjUgNTk5LDc2My4yNSBDNTk5LDc2My4yNSA1ODEsNzYzLjI1IDU4MSw3NTMuMjUgTDU4MSw3MjcuMjUgIiBmaWxsPSIjRTJFMkYwIiBzdHlsZT0ic3Ryb2tlOiMxODE4MTg7c3Ryb2tlLXdpZHRoOjEuNTsiLz48cGF0aCBkPSJNNTgxLDcyNy4yNSBDNTgxLDczNy4yNSA1OTksNzM3LjI1IDU5OSw3MzcuMjUgQzU5OSw3MzcuMjUgNjE3LDczNy4yNSA2MTcsNzI3LjI1ICIgZmlsbD0ibm9uZSIgc3R5bGU9InN0cm9rZTojMTgxODE4O3N0cm9rZS13aWR0aDoxLjU7Ii8+PHRleHQgZmlsbD0iIzAwMDAwMCIgZm9udC1mYW1pbHk9InNhbnMtc2VyaWYiIGZvbnQtc2l6ZT0iMTQiIGxlbmd0aEFkanVzdD0ic3BhY2luZyIgdGV4dExlbmd0aD0iNTYiIHg9IjY2OCIgeT0iNzguMjM0NCI+JiMzOTU2NDsmIzM1Nzc3OyYjMzE5OTU7JiMzMjQ3OTs8L3RleHQ+PHBhdGggZD0iTTY4MSwyOSBDNjgxLDE5IDY5OSwxOSA2OTksMTkgQzY5OSwxOSA3MTcsMTkgNzE3LDI5IEw3MTcsNTUgQzcxNyw2NSA2OTksNjUgNjk5LDY1IEM2OTksNjUgNjgxLDY1IDY4MSw1NSBMNjgxLDI5ICIgZmlsbD0iI0UyRTJGMCIgc3R5bGU9InN0cm9rZTojMTgxODE4O3N0cm9rZS13aWR0aDoxLjU7Ii8+PHBhdGggZD0iTTY4MSwyOSBDNjgxLDM5IDY5OSwzOSA2OTksMzkgQzY5OSwzOSA3MTcsMzkgNzE3LDI5ICIgZmlsbD0ibm9uZSIgc3R5bGU9InN0cm9rZTojMTgxODE4O3N0cm9rZS13aWR0aDoxLjU7Ii8+PHRleHQgZmlsbD0iIzAwMDAwMCIgZm9udC1mYW1pbHk9InNhbnMtc2VyaWYiIGZvbnQtc2l6ZT0iMTQiIGxlbmd0aEFkanVzdD0ic3BhY2luZyIgdGV4dExlbmd0aD0iNTYiIHg9IjY2OCIgeT0iNzE1LjUiPiYjMzk1NjQ7JiMzNTc3NzsmIzMxOTk1OyYjMzI0Nzk7PC90ZXh0PjxwYXRoIGQ9Ik02ODEsNzI3LjI1IEM2ODEsNzE3LjI1IDY5OSw3MTcuMjUgNjk5LDcxNy4yNSBDNjk5LDcxNy4yNSA3MTcsNzE3LjI1IDcxNyw3MjcuMjUgTDcxNyw3NTMuMjUgQzcxNyw3NjMuMjUgNjk5LDc2My4yNSA2OTksNzYzLjI1IEM2OTksNzYzLjI1IDY4MSw3NjMuMjUgNjgxLDc1My4yNSBMNjgxLDcyNy4yNSAiIGZpbGw9IiNFMkUyRjAiIHN0eWxlPSJzdHJva2U6IzE4MTgxODtzdHJva2Utd2lkdGg6MS41OyIvPjxwYXRoIGQ9Ik02ODEsNzI3LjI1IEM2ODEsNzM3LjI1IDY5OSw3MzcuMjUgNjk5LDczNy4yNSBDNjk5LDczNy4yNSA3MTcsNzM3LjI1IDcxNyw3MjcuMjUgIiBmaWxsPSJub25lIiBzdHlsZT0ic3Ryb2tlOiMxODE4MTg7c3Ryb2tlLXdpZHRoOjEuNTsiLz48dGV4dCBmaWxsPSIjMDAwMDAwIiBmb250LWZhbWlseT0ic2Fucy1zZXJpZiIgZm9udC1zaXplPSIxNCIgbGVuZ3RoQWRqdXN0PSJzcGFjaW5nIiB0ZXh0TGVuZ3RoPSI4NCIgeD0iNzQwIiB5PSI3OC4yMzQ0Ij4mIzI1OTY4OyYjMjU0NTQ7JiMyNjU5NzsmIzM1ODEwOyYjMzE5OTU7JiMzMjQ3OTs8L3RleHQ+PHBhdGggZD0iTTc2NywyOSBDNzY3LDE5IDc4NSwxOSA3ODUsMTkgQzc4NSwxOSA4MDMsMTkgODAzLDI5IEw4MDMsNTUgQzgwMyw2NSA3ODUsNjUgNzg1LDY1IEM3ODUsNjUgNzY3LDY1IDc2Nyw1NSBMNzY3LDI5ICIgZmlsbD0iI0UyRTJGMCIgc3R5bGU9InN0cm9rZTojMTgxODE4O3N0cm9rZS13aWR0aDoxLjU7Ii8+PHBhdGggZD0iTTc2NywyOSBDNzY3LDM5IDc4NSwzOSA3ODUsMzkgQzc4NSwzOSA4MDMsMzkgODAzLDI5ICIgZmlsbD0ibm9uZSIgc3R5bGU9InN0cm9rZTojMTgxODE4O3N0cm9rZS13aWR0aDoxLjU7Ii8+PHRleHQgZmlsbD0iIzAwMDAwMCIgZm9udC1mYW1pbHk9InNhbnMtc2VyaWYiIGZvbnQtc2l6ZT0iMTQiIGxlbmd0aEFkanVzdD0ic3BhY2luZyIgdGV4dExlbmd0aD0iODQiIHg9Ijc0MCIgeT0iNzE1LjUiPiYjMjU5Njg7JiMyNTQ1NDsmIzI2NTk3OyYjMzU4MTA7JiMzMTk5NTsmIzMyNDc5OzwvdGV4dD48cGF0aCBkPSJNNzY3LDcyNy4yNSBDNzY3LDcxNy4yNSA3ODUsNzE3LjI1IDc4NSw3MTcuMjUgQzc4NSw3MTcuMjUgODAzLDcxNy4yNSA4MDMsNzI3LjI1IEw4MDMsNzUzLjI1IEM4MDMsNzYzLjI1IDc4NSw3NjMuMjUgNzg1LDc2My4yNSBDNzg1LDc2My4yNSA3NjcsNzYzLjI1IDc2Nyw3NTMuMjUgTDc2Nyw3MjcuMjUgIiBmaWxsPSIjRTJFMkYwIiBzdHlsZT0ic3Ryb2tlOiMxODE4MTg7c3Ryb2tlLXdpZHRoOjEuNTsiLz48cGF0aCBkPSJNNzY3LDcyNy4yNSBDNzY3LDczNy4yNSA3ODUsNzM3LjI1IDc4NSw3MzcuMjUgQzc4NSw3MzcuMjUgODAzLDczNy4yNSA4MDMsNzI3LjI1ICIgZmlsbD0ibm9uZSIgc3R5bGU9InN0cm9rZTojMTgxODE4O3N0cm9rZS13aWR0aDoxLjU7Ii8+PHBvbHlnb24gZmlsbD0iIzcwNzA3MCIgcG9pbnRzPSIxNTEsMTA1Ljg5ODQsMTYxLDEwOS44OTg0LDE1MSwxMTMuODk4NCwxNTUsMTA5Ljg5ODQiIHN0eWxlPSJzdHJva2U6IzcwNzA3MDtzdHJva2Utd2lkdGg6MS4wOyIvPjxsaW5lIHN0eWxlPSJzdHJva2U6IzcwNzA3MDtzdHJva2Utd2lkdGg6MS4wOyIgeDE9IjIyIiB4Mj0iMTU3IiB5MT0iMTA5Ljg5ODQiIHkyPSIxMDkuODk4NCIvPjx0ZXh0IGZpbGw9IiMwMDAwMDAiIGZvbnQtZmFtaWx5PSJzYW5zLXNlcmlmIiBmb250LXNpemU9IjEzIiBsZW5ndGhBZGp1c3Q9InNwYWNpbmciIHRleHRMZW5ndGg9Ijc4IiB4PSI1My41IiB5PSIxMDYuMjczNCI+JiMzNTc3NTsmIzM4MzgyOyYjMjQxNzk7JiMyMTQ4ODsmIzIxMDY5OyYjMzE0NzE7PC90ZXh0Pjxwb2x5Z29uIGZpbGw9IiM3MDcwNzAiIHBvaW50cz0iMTUxLDEzMy44MTI1LDE2MSwxMzcuODEyNSwxNTEsMTQxLjgxMjUsMTU1LDEzNy44MTI1IiBzdHlsZT0ic3Ryb2tlOiM3MDcwNzA7c3Ryb2tlLXdpZHRoOjEuMDsiLz48bGluZSBzdHlsZT0ic3Ryb2tlOiM3MDcwNzA7c3Ryb2tlLXdpZHRoOjEuMDsiIHgxPSIyMiIgeDI9IjE1NyIgeTE9IjEzNy44MTI1IiB5Mj0iMTM3LjgxMjUiLz48dGV4dCBmaWxsPSIjMDAwMDAwIiBmb250LWZhbWlseT0ic2Fucy1zZXJpZiIgZm9udC1zaXplPSIxMyIgbGVuZ3RoQWRqdXN0PSJzcGFjaW5nIiB0ZXh0TGVuZ3RoPSI3OCIgeD0iNTMuNSIgeT0iMTM0LjE4NzUiPiYjMzY3NTU7JiMyMDgzNzsmIzE5OTk0OyYjMjExNTM7JiMzNTgzMTsmIzI3NzE0OzwvdGV4dD48cG9seWdvbiBmaWxsPSIjNzA3MDcwIiBwb2ludHM9IjI2NiwxNjEuNzI2NiwyNzYsMTY1LjcyNjYsMjY2LDE2OS43MjY2LDI3MCwxNjUuNzI2NiIgc3R5bGU9InN0cm9rZTojNzA3MDcwO3N0cm9rZS13aWR0aDoxLjA7Ii8+PGxpbmUgc3R5bGU9InN0cm9rZTojNzA3MDcwO3N0cm9rZS13aWR0aDoxLjA7IiB4MT0iMTYzIiB4Mj0iMjcyIiB5MT0iMTY1LjcyNjYiIHkyPSIxNjUuNzI2NiIvPjx0ZXh0IGZpbGw9IiMwMDAwMDAiIGZvbnQtZmFtaWx5PSJzYW5zLXNlcmlmIiBmb250LXNpemU9IjEzIiBsZW5ndGhBZGp1c3Q9InNwYWNpbmciIHRleHRMZW5ndGg9Ijc4IiB4PSIxODEuNSIgeT0iMTYyLjEwMTYiPiYjMjE0NTc7JiMzNjg2NTsmIzE5OTk0OyYjMjExNTM7JiMzNTgzMTsmIzI3NzE0OzwvdGV4dD48cG9seWdvbiBmaWxsPSIjNzA3MDcwIiBwb2ludHM9IjQyMCwxODkuNjQwNiw0MzAsMTkzLjY0MDYsNDIwLDE5Ny42NDA2LDQyNCwxOTMuNjQwNiIgc3R5bGU9InN0cm9rZTojNzA3MDcwO3N0cm9rZS13aWR0aDoxLjA7Ii8+PGxpbmUgc3R5bGU9InN0cm9rZTojNzA3MDcwO3N0cm9rZS13aWR0aDoxLjA7IiB4MT0iMjc4IiB4Mj0iNDI2IiB5MT0iMTkzLjY0MDYiIHkyPSIxOTMuNjQwNiIvPjx0ZXh0IGZpbGw9IiMwMDAwMDAiIGZvbnQtZmFtaWx5PSJzYW5zLXNlcmlmIiBmb250LXNpemU9IjEzIiBsZW5ndGhBZGp1c3Q9InNwYWNpbmciIHRleHRMZW5ndGg9IjEzMCIgeD0iMjkwIiB5PSIxOTAuMDE1NiI+JiMyMTQ1NzsmIzM2ODY1OyYjMzU4MzE7JiMyNzcxNDsmIzMzMjY3OyYjMjEzMDY7JiMyMjM1OTsmIzM4MTQyOyYjMzM0MTA7JiMyODg1Nzs8L3RleHQ+PGxpbmUgc3R5bGU9InN0cm9rZTojNzA3MDcwO3N0cm9rZS13aWR0aDoxLjA7IiB4MT0iNDMyIiB4Mj0iNDc0IiB5MT0iMjIxLjU1NDciIHkyPSIyMjEuNTU0NyIvPjxsaW5lIHN0eWxlPSJzdHJva2U6IzcwNzA3MDtzdHJva2Utd2lkdGg6MS4wOyIgeDE9IjQ3NCIgeDI9IjQ3NCIgeTE9IjIyMS41NTQ3IiB5Mj0iMjM0LjU1NDciLz48bGluZSBzdHlsZT0ic3Ryb2tlOiM3MDcwNzA7c3Ryb2tlLXdpZHRoOjEuMDsiIHgxPSI0MzMiIHgyPSI0NzQiIHkxPSIyMzQuNTU0NyIgeTI9IjIzNC41NTQ3Ii8+PHBvbHlnb24gZmlsbD0iIzcwNzA3MCIgcG9pbnRzPSI0NDMsMjMwLjU1NDcsNDMzLDIzNC41NTQ3LDQ0MywyMzguNTU0Nyw0MzksMjM0LjU1NDciIHN0eWxlPSJzdHJva2U6IzcwNzA3MDtzdHJva2Utd2lkdGg6MS4wOyIvPjx0ZXh0IGZpbGw9IiMwMDAwMDAiIGZvbnQtZmFtaWx5PSJzYW5zLXNlcmlmIiBmb250LXNpemU9IjEzIiBsZW5ndGhBZGp1c3Q9InNwYWNpbmciIHRleHRMZW5ndGg9IjUyIiB4PSI0MzkiIHk9IjIxNy45Mjk3Ij4mIzM5NTY0OyYjMzU3Nzc7JiMzNTgzMTsmIzI3NzE0OzwvdGV4dD48bGluZSBzdHlsZT0ic3Ryb2tlOiM3MDcwNzA7c3Ryb2tlLXdpZHRoOjEuMDsiIHgxPSI0MzIiIHgyPSI0NzQiIHkxPSIyNjIuNDY4OCIgeTI9IjI2Mi40Njg4Ii8+PGxpbmUgc3R5bGU9InN0cm9rZTojNzA3MDcwO3N0cm9rZS13aWR0aDoxLjA7IiB4MT0iNDc0IiB4Mj0iNDc0IiB5MT0iMjYyLjQ2ODgiIHkyPSIyNzUuNDY4OCIvPjxsaW5lIHN0eWxlPSJzdHJva2U6IzcwNzA3MDtzdHJva2Utd2lkdGg6MS4wOyIgeDE9IjQzMyIgeDI9IjQ3NCIgeTE9IjI3NS40Njg4IiB5Mj0iMjc1LjQ2ODgiLz48cG9seWdvbiBmaWxsPSIjNzA3MDcwIiBwb2ludHM9IjQ0MywyNzEuNDY4OCw0MzMsMjc1LjQ2ODgsNDQzLDI3OS40Njg4LDQzOSwyNzUuNDY4OCIgc3R5bGU9InN0cm9rZTojNzA3MDcwO3N0cm9rZS13aWR0aDoxLjA7Ii8+PHRleHQgZmlsbD0iIzAwMDAwMCIgZm9udC1mYW1pbHk9InNhbnMtc2VyaWYiIGZvbnQtc2l6ZT0iMTMiIGxlbmd0aEFkanVzdD0ic3BhY2luZyIgdGV4dExlbmd0aD0iNzgiIHg9IjQzOSIgeT0iMjU4Ljg0MzgiPiYjMjUxOTE7JiMzNDg5MjsmIzI2MjM0OyYjMzMwMjE7JiMyMTUxMjsmIzMyNDIyOzwvdGV4dD48bGluZSBzdHlsZT0ic3Ryb2tlOiM3MDcwNzA7c3Ryb2tlLXdpZHRoOjEuMDsiIHgxPSI0MzIiIHgyPSI0NzQiIHkxPSIzMDMuMzgyOCIgeTI9IjMwMy4zODI4Ii8+PGxpbmUgc3R5bGU9InN0cm9rZTojNzA3MDcwO3N0cm9rZS13aWR0aDoxLjA7IiB4MT0iNDc0IiB4Mj0iNDc0IiB5MT0iMzAzLjM4MjgiIHkyPSIzMTYuMzgyOCIvPjxsaW5lIHN0eWxlPSJzdHJva2U6IzcwNzA3MDtzdHJva2Utd2lkdGg6MS4wOyIgeDE9IjQzMyIgeDI9IjQ3NCIgeTE9IjMxNi4zODI4IiB5Mj0iMzE2LjM4MjgiLz48cG9seWdvbiBmaWxsPSIjNzA3MDcwIiBwb2ludHM9IjQ0MywzMTIuMzgyOCw0MzMsMzE2LjM4MjgsNDQzLDMyMC4zODI4LDQzOSwzMTYuMzgyOCIgc3R5bGU9InN0cm9rZTojNzA3MDcwO3N0cm9rZS13aWR0aDoxLjA7Ii8+PHRleHQgZmlsbD0iIzAwMDAwMCIgZm9udC1mYW1pbHk9InNhbnMtc2VyaWYiIGZvbnQtc2l6ZT0iMTMiIGxlbmd0aEFkanVzdD0ic3BhY2luZyIgdGV4dExlbmd0aD0iMTQzIiB4PSI0MzkiIHk9IjI5OS43NTc4Ij4mIzIyMzEyOyYjMjEzMDY7JiMyMjM1OTsmIzM4MTQyOyYjMTk5Nzg7JiMyMzM4NDsmIzIwNjQ4OyYjMjgzMzU7JiMyODMwNDsmIzI1OTY4OyYjMjU0NTQ7PC90ZXh0Pjxwb2x5Z29uIGZpbGw9IiM3MDcwNzAiIHBvaW50cz0iMjg5LDM0MC4yOTY5LDI3OSwzNDQuMjk2OSwyODksMzQ4LjI5NjksMjg1LDM0NC4yOTY5IiBzdHlsZT0ic3Ryb2tlOiM3MDcwNzA7c3Ryb2tlLXdpZHRoOjEuMDsiLz48bGluZSBzdHlsZT0ic3Ryb2tlOiM3MDcwNzA7c3Ryb2tlLXdpZHRoOjEuMDsiIHgxPSIyODMiIHgyPSI0MzEiIHkxPSIzNDQuMjk2OSIgeTI9IjM0NC4yOTY5Ii8+PHRleHQgZmlsbD0iIzAwMDAwMCIgZm9udC1mYW1pbHk9InNhbnMtc2VyaWYiIGZvbnQtc2l6ZT0iMTMiIGxlbmd0aEFkanVzdD0ic3BhY2luZyIgdGV4dExlbmd0aD0iNzgiIHg9IjMxNiIgeT0iMzQwLjY3MTkiPiYjMzY4MjA7JiMyMjIzODsmIzIyNzg4OyYjMjk3MDI7JiMzMjQ2NzsmIzI2NTI0OzwvdGV4dD48cG9seWdvbiBmaWxsPSIjNzA3MDcwIiBwb2ludHM9IjE3NCwzNjguMjEwOSwxNjQsMzcyLjIxMDksMTc0LDM3Ni4yMTA5LDE3MCwzNzIuMjEwOSIgc3R5bGU9InN0cm9rZTojNzA3MDcwO3N0cm9rZS13aWR0aDoxLjA7Ii8+PGxpbmUgc3R5bGU9InN0cm9rZTojNzA3MDcwO3N0cm9rZS13aWR0aDoxLjA7IiB4MT0iMTY4IiB4Mj0iMjc3IiB5MT0iMzcyLjIxMDkiIHkyPSIzNzIuMjEwOSIvPjx0ZXh0IGZpbGw9IiMwMDAwMDAiIGZvbnQtZmFtaWx5PSJzYW5zLXNlcmlmIiBmb250LXNpemU9IjEzIiBsZW5ndGhBZGp1c3Q9InNwYWNpbmciIHRleHRMZW5ndGg9IjkxIiB4PSIxNzUiIHk9IjM2OC41ODU5Ij4mIzIxNDU3OyYjMzY4NjU7JiMyMTcwOTsmIzI0MjEyOyYjMzMyNjc7JiMyMTA2OTsmIzMxNDcxOzwvdGV4dD48cG9seWdvbiBmaWxsPSIjNzA3MDcwIiBwb2ludHM9IjMzLDM5Ni4xMjUsMjMsNDAwLjEyNSwzMyw0MDQuMTI1LDI5LDQwMC4xMjUiIHN0eWxlPSJzdHJva2U6IzcwNzA3MDtzdHJva2Utd2lkdGg6MS4wOyIvPjxsaW5lIHN0eWxlPSJzdHJva2U6IzcwNzA3MDtzdHJva2Utd2lkdGg6MS4wOyIgeDE9IjI3IiB4Mj0iMTYyIiB5MT0iNDAwLjEyNSIgeTI9IjQwMC4xMjUiLz48dGV4dCBmaWxsPSIjMDAwMDAwIiBmb250LWZhbWlseT0ic2Fucy1zZXJpZiIgZm9udC1zaXplPSIxMyIgbGVuZ3RoQWRqdXN0PSJzcGFjaW5nIiB0ZXh0TGVuZ3RoPSIxMTciIHg9IjM0IiB5PSIzOTYuNSI+JiMyNjE3NDsmIzMxMDM0OyYjMjE3MDk7JiMyNDIxMjsmIzMyNDY3OyYjMjY1MjQ7JiMzMjQ3MzsmIzI5OTkyOyYjMjUxNDM7PC90ZXh0Pjxwb2x5Z29uIGZpbGw9IiM3MDcwNzAiIHBvaW50cz0iNTg3LDQyNC4wMzkxLDU5Nyw0MjguMDM5MSw1ODcsNDMyLjAzOTEsNTkxLDQyOC4wMzkxIiBzdHlsZT0ic3Ryb2tlOiM3MDcwNzA7c3Ryb2tlLXdpZHRoOjEuMDsiLz48bGluZSBzdHlsZT0ic3Ryb2tlOiM3MDcwNzA7c3Ryb2tlLXdpZHRoOjEuMDsiIHgxPSIyNzgiIHgyPSI1OTMiIHkxPSI0MjguMDM5MSIgeTI9IjQyOC4wMzkxIi8+PHRleHQgZmlsbD0iIzAwMDAwMCIgZm9udC1mYW1pbHk9InNhbnMtc2VyaWYiIGZvbnQtc2l6ZT0iMTMiIGxlbmd0aEFkanVzdD0ic3BhY2luZyIgdGV4dExlbmd0aD0iMTA0IiB4PSIzODYuNSIgeT0iNDI0LjQxNDEiPiYjMzE2NDk7JiMyOTcwMjsmIzM5MTM1OyYjMjE2OTc7JiMyODMzNTsmIzI4MzA0OyYjMjA0NDk7JiMyNDY4Nzs8L3RleHQ+PHBvbHlnb24gZmlsbD0iIzcwNzA3MCIgcG9pbnRzPSI2ODcsNDUxLjk1MzEsNjk3LDQ1NS45NTMxLDY4Nyw0NTkuOTUzMSw2OTEsNDU1Ljk1MzEiIHN0eWxlPSJzdHJva2U6IzcwNzA3MDtzdHJva2Utd2lkdGg6MS4wOyIvPjxsaW5lIHN0eWxlPSJzdHJva2U6IzcwNzA3MDtzdHJva2Utd2lkdGg6MS4wOyIgeDE9IjI3OCIgeDI9IjY5MyIgeTE9IjQ1NS45NTMxIiB5Mj0iNDU1Ljk1MzEiLz48dGV4dCBmaWxsPSIjMDAwMDAwIiBmb250LWZhbWlseT0ic2Fucy1zZXJpZiIgZm9udC1zaXplPSIxMyIgbGVuZ3RoQWRqdXN0PSJzcGFjaW5nIiB0ZXh0TGVuZ3RoPSI3OCIgeD0iNDQ5LjUiIHk9IjQ1Mi4zMjgxIj4mIzM5NTY0OyYjMzU3Nzc7JiMyODMzNTsmIzI4MzA0OyYjMjU5Njg7JiMyNTQ1NDs8L3RleHQ+PHBvbHlnb24gZmlsbD0iIzcwNzA3MCIgcG9pbnRzPSI3NzMsNDc5Ljg2NzIsNzgzLDQ4My44NjcyLDc3Myw0ODcuODY3Miw3NzcsNDgzLjg2NzIiIHN0eWxlPSJzdHJva2U6IzcwNzA3MDtzdHJva2Utd2lkdGg6MS4wOyIvPjxsaW5lIHN0eWxlPSJzdHJva2U6IzcwNzA3MDtzdHJva2Utd2lkdGg6MS4wOyIgeDE9IjI3OCIgeDI9Ijc3OSIgeTE9IjQ4My44NjcyIiB5Mj0iNDgzLjg2NzIiLz48dGV4dCBmaWxsPSIjMDAwMDAwIiBmb250LWZhbWlseT0ic2Fucy1zZXJpZiIgZm9udC1zaXplPSIxMyIgbGVuZ3RoQWRqdXN0PSJzcGFjaW5nIiB0ZXh0TGVuZ3RoPSI3OCIgeD0iNDkyLjUiIHk9IjQ4MC4yNDIyIj4mIzI2NTk3OyYjMzU4MTA7JiMyODMzNTsmIzI4MzA0OyYjMjU5Njg7JiMyNTQ1NDs8L3RleHQ+PHBhdGggZD0iTTIyNiw0OTguODY3MiBMMzIzLDQ5OC44NjcyIEwzMjMsNTA0Ljc4MTMgTDMxMyw1MTQuNzgxMyBMMjI2LDUxNC43ODEzIEwyMjYsNDk4Ljg2NzIgIiBmaWxsPSIjRUVFRUVFIiBzdHlsZT0ic3Ryb2tlOiMwMDAwMDA7c3Ryb2tlLXdpZHRoOjEuNTsiLz48cmVjdCBmaWxsPSJub25lIiBoZWlnaHQ9IjcxLjc0MjIiIHN0eWxlPSJzdHJva2U6IzAwMDAwMDtzdHJva2Utd2lkdGg6MS41OyIgd2lkdGg9IjQ0MiIgeD0iMjI2IiB5PSI0OTguODY3MiIvPjx0ZXh0IGZpbGw9IiMwMDAwMDAiIGZvbnQtZmFtaWx5PSJzYW5zLXNlcmlmIiBmb250LXNpemU9IjEzIiBmb250LXdlaWdodD0iYm9sZCIgbGVuZ3RoQWRqdXN0PSJzcGFjaW5nIiB0ZXh0TGVuZ3RoPSI1MiIgeD0iMjQxIiB5PSI1MTIuMTU2MyI+JiMyNTk2ODsmIzI1NDU0OyYjMzE2NDk7JiMyOTcwMjs8L3RleHQ+PHBvbHlnb24gZmlsbD0iIzcwNzA3MCIgcG9pbnRzPSI1ODcsNTMwLjY5NTMsNTk3LDUzNC42OTUzLDU4Nyw1MzguNjk1Myw1OTEsNTM0LjY5NTMiIHN0eWxlPSJzdHJva2U6IzcwNzA3MDtzdHJva2Utd2lkdGg6MS4wOyIvPjxsaW5lIHN0eWxlPSJzdHJva2U6IzcwNzA3MDtzdHJva2Utd2lkdGg6MS4wO3N0cm9rZS1kYXNoYXJyYXk6Mi4wLDIuMDsiIHgxPSIyNzgiIHgyPSI1OTMiIHkxPSI1MzQuNjk1MyIgeTI9IjUzNC42OTUzIi8+PHRleHQgZmlsbD0iIzAwMDAwMCIgZm9udC1mYW1pbHk9InNhbnMtc2VyaWYiIGZvbnQtc2l6ZT0iMTMiIGxlbmd0aEFkanVzdD0ic3BhY2luZyIgdGV4dExlbmd0aD0iMTA0IiB4PSIzODYuNSIgeT0iNTMxLjA3MDMiPiYjMzE2NDk7JiMyOTcwMjsmIzM5MTM1OyYjMjE2OTc7JiMyODMzNTsmIzI4MzA0OyYjMjA0NDk7JiMyNDY4Nzs8L3RleHQ+PHBvbHlnb24gZmlsbD0iIzcwNzA3MCIgcG9pbnRzPSI0NDMsNTU4LjYwOTQsNDMzLDU2Mi42MDk0LDQ0Myw1NjYuNjA5NCw0MzksNTYyLjYwOTQiIHN0eWxlPSJzdHJva2U6IzcwNzA3MDtzdHJva2Utd2lkdGg6MS4wOyIvPjxsaW5lIHN0eWxlPSJzdHJva2U6IzcwNzA3MDtzdHJva2Utd2lkdGg6MS4wO3N0cm9rZS1kYXNoYXJyYXk6Mi4wLDIuMDsiIHgxPSI0MzciIHgyPSI1OTgiIHkxPSI1NjIuNjA5NCIgeTI9IjU2Mi42MDk0Ii8+PHRleHQgZmlsbD0iIzAwMDAwMCIgZm9udC1mYW1pbHk9InNhbnMtc2VyaWYiIGZvbnQtc2l6ZT0iMTMiIGxlbmd0aEFkanVzdD0ic3BhY2luZyIgdGV4dExlbmd0aD0iMTQzIiB4PSI0NDQiIHk9IjU1OC45ODQ0Ij4mIzIyMzEyOyYjMjEzMDY7JiMyMjM1OTsmIzM4MTQyOyYjMTk5Nzg7JiMyMzM4NDsmIzIwNjQ4OyYjMjgzMzU7JiMyODMwNDsmIzI1OTY4OyYjMjU0NTQ7PC90ZXh0PjxwYXRoIGQ9Ik0yMjYsNTg0LjYwOTQgTDMyMyw1ODQuNjA5NCBMMzIzLDU5MC41MjM0IEwzMTMsNjAwLjUyMzQgTDIyNiw2MDAuNTIzNCBMMjI2LDU4NC42MDk0ICIgZmlsbD0iI0VFRUVFRSIgc3R5bGU9InN0cm9rZTojMDAwMDAwO3N0cm9rZS13aWR0aDoxLjU7Ii8+PHJlY3QgZmlsbD0ibm9uZSIgaGVpZ2h0PSI0My44MjgxIiBzdHlsZT0ic3Ryb2tlOiMwMDAwMDA7c3Ryb2tlLXdpZHRoOjEuNTsiIHdpZHRoPSI1MTQiIHg9IjIyNiIgeT0iNTg0LjYwOTQiLz48dGV4dCBmaWxsPSIjMDAwMDAwIiBmb250LWZhbWlseT0ic2Fucy1zZXJpZiIgZm9udC1zaXplPSIxMyIgZm9udC13ZWlnaHQ9ImJvbGQiIGxlbmd0aEFkanVzdD0ic3BhY2luZyIgdGV4dExlbmd0aD0iNTIiIHg9IjI0MSIgeT0iNTk3Ljg5ODQiPiYjMjU5Njg7JiMyNTQ1NDsmIzM5NTY0OyYjMzU3Nzc7PC90ZXh0Pjxwb2x5Z29uIGZpbGw9IiM3MDcwNzAiIHBvaW50cz0iNjg3LDYxNi40Mzc1LDY5Nyw2MjAuNDM3NSw2ODcsNjI0LjQzNzUsNjkxLDYyMC40Mzc1IiBzdHlsZT0ic3Ryb2tlOiM3MDcwNzA7c3Ryb2tlLXdpZHRoOjEuMDsiLz48bGluZSBzdHlsZT0ic3Ryb2tlOiM3MDcwNzA7c3Ryb2tlLXdpZHRoOjEuMDtzdHJva2UtZGFzaGFycmF5OjIuMCwyLjA7IiB4MT0iMjc4IiB4Mj0iNjkzIiB5MT0iNjIwLjQzNzUiIHkyPSI2MjAuNDM3NSIvPjx0ZXh0IGZpbGw9IiMwMDAwMDAiIGZvbnQtZmFtaWx5PSJzYW5zLXNlcmlmIiBmb250LXNpemU9IjEzIiBsZW5ndGhBZGp1c3Q9InNwYWNpbmciIHRleHRMZW5ndGg9Ijc4IiB4PSI0NDkuNSIgeT0iNjE2LjgxMjUiPiYjMzk1NjQ7JiMzNTc3NzsmIzI4MzM1OyYjMjgzMDQ7JiMyNTk2ODsmIzI1NDU0OzwvdGV4dD48cGF0aCBkPSJNMjI2LDY0Mi40Mzc1IEwzMjMsNjQyLjQzNzUgTDMyMyw2NDguMzUxNiBMMzEzLDY1OC4zNTE2IEwyMjYsNjU4LjM1MTYgTDIyNiw2NDIuNDM3NSAiIGZpbGw9IiNFRUVFRUUiIHN0eWxlPSJzdHJva2U6IzAwMDAwMDtzdHJva2Utd2lkdGg6MS41OyIvPjxyZWN0IGZpbGw9Im5vbmUiIGhlaWdodD0iNDMuODI4MSIgc3R5bGU9InN0cm9rZTojMDAwMDAwO3N0cm9rZS13aWR0aDoxLjU7IiB3aWR0aD0iNjE0IiB4PSIyMjYiIHk9IjY0Mi40Mzc1Ii8+PHRleHQgZmlsbD0iIzAwMDAwMCIgZm9udC1mYW1pbHk9InNhbnMtc2VyaWYiIGZvbnQtc2l6ZT0iMTMiIGZvbnQtd2VpZ2h0PSJib2xkIiBsZW5ndGhBZGp1c3Q9InNwYWNpbmciIHRleHRMZW5ndGg9IjUyIiB4PSIyNDEiIHk9IjY1NS43MjY2Ij4mIzI1OTY4OyYjMjU0NTQ7JiMyNjU5NzsmIzM1ODEwOzwvdGV4dD48cG9seWdvbiBmaWxsPSIjNzA3MDcwIiBwb2ludHM9Ijc3Myw2NzQuMjY1Niw3ODMsNjc4LjI2NTYsNzczLDY4Mi4yNjU2LDc3Nyw2NzguMjY1NiIgc3R5bGU9InN0cm9rZTojNzA3MDcwO3N0cm9rZS13aWR0aDoxLjA7Ii8+PGxpbmUgc3R5bGU9InN0cm9rZTojNzA3MDcwO3N0cm9rZS13aWR0aDoxLjA7c3Ryb2tlLWRhc2hhcnJheToyLjAsMi4wOyIgeDE9IjI3OCIgeDI9Ijc3OSIgeTE9IjY3OC4yNjU2IiB5Mj0iNjc4LjI2NTYiLz48dGV4dCBmaWxsPSIjMDAwMDAwIiBmb250LWZhbWlseT0ic2Fucy1zZXJpZiIgZm9udC1zaXplPSIxMyIgbGVuZ3RoQWRqdXN0PSJzcGFjaW5nIiB0ZXh0TGVuZ3RoPSI3OCIgeD0iNDkyLjUiIHk9IjY3NC42NDA2Ij4mIzI2NTk3OyYjMzU4MTA7JiMyODMzNTsmIzI4MzA0OyYjMjU5Njg7JiMyNTQ1NDs8L3RleHQ+PCEtLVNSQz1bYlBGbEp6RDA2Q1ZWdHJ6bnAzVndPV21DWVNhMkl1UDJWMjZXMGxod3Jqd1dlVWxMUW1pWUNON3A1b25SbTBtM0E0QWM4OGw2M0tDQ3E0TnVQeFlzLW96aVUtalNPSzVpYXBSTnZfRHl4dGMtenhIQm42YjltSjN2VUZwLXZDV3pFQXRoZ1hRRm5JWVF3dndJejZhWlBNWU8yYUpIaVE5dDJvR0pHdEVRWjVBUXp1dkFSYTJCZldjRGdaOUlUMkNabnNQeC14ZnhPZ0Fhd0cxcURTTmwzWU5sMzN0aWxJdUdjVDBSaTNfam9hNV9DVTBfNF9zZm4zZHV2WU1tOVp0M3lUdy1LRFI4c0VaT3lEWmVIOURGOG00Rkg0UThXV0dJSUcyV3BLWUFZWVpBRzlUN1hnbkZ1QVR3S2ZRY2IwcHN2RHE3ZmNzS1hmeU9NMTRtTjAzR2xQQUthaGRSdGt4bXNncVV4LVFWMVB0R0dLOTVKQ0Yxdm0wV0JtUmpyT2dyVTBZSDFZVFQ2dTRoaGFrMmZCZlVtT1pyUXpkUE1zR1JiT1dON3RIdGs4MG1TekxKczJvb1YzYTBhd2V3WmtkaTFSSFdpYXpoWlRBOWF5X1BrTUVrQUhEWEhmWDZhWjlBSDBuNGZBQ0txWjJDREJ2aWlyQnN4QkhpUE1qc2pNb2xsQjRGd2RQenN5eVE5YUdTZHpWUXlNeTVmdlBqR252WEFnTmRtdjNyVmp5Z0xndGpOUVZza0dyek82M2dheTFwMDRPSkdRVG53NUhGNnNqTFRkcDBibFZQS2o3LU5rbDBkOUpPd3pzcGVtLWswcXhqcUZnUDB5c09YeE15WTRFc19BeG44WGkyTXI1VkNVSDVtN0ZJVU5qbXBadUduWmk5UzVFMmNsdzlNcWp4SmhiV1JQWkVvenppUFQ0c2xydVhZTXJNTWVNVDdVTlBadE1NZ3JYY3BKOU5rRHFURERleVNLdk5zU1NqamxGQUUtMXdvVGhRRkVUOXUzOHRXdk1BeGkxdlBsMzNRM0R3cWlVaXpIRHhuLUdPcnhGaDZ0cDRHTFl2RUtEbm9BVUJwbmlsZDR6VDY2X0RLczFoZ0NTRzZpb0pNdXFfUVk0SUo1NVlnOTJsLURSeUhfc2hTQU5ZbDltY3ZNVnlfeGJXSEduTm1fbGdLQ3RibExfR3VMcnRxQmRLNjVWYzNtMDBdLS0+PC9nPjwvc3ZnPg==;" parent="1" vertex="1">
            <mxGeometry x="-1650" y="-3450" width="1052.54" height="972.91" as="geometry" />
          </mxCell>
        </UserObject>
        <UserObject label="" plantUmlData="{&#xa;  &quot;data&quot;: &quot;@startuml\n\n!define AWSPUML https://raw.githubusercontent.com/awslabs/aws-icons-for-plantuml/v14.0/dist\n\n!define HEADER1(color) &lt;font color=color&gt;&lt;b&gt;\n!define HEADER2(color) &lt;font color=color&gt;&lt;size:14&gt;&lt;b&gt;\n!define MONOFONT &lt;font face=\&quot;Monaco\&quot;&gt;\n\ntitle 基于区块链的食品溯源系统\n\n!define RECTANGLE(a, b) rectangle a as b\n!define DATABASE(a, b) database a as b\n!define ACTOR(a, b) actor a as b\n\nskinparam defaultTextAlignment center\nskinparam component {\n    BorderColor #707070\n    ArrowColor #707070\n}\n\nactor 用户 as User\ncomponent \&quot;用户管理\&quot; as UserManagement\ncomponent \&quot;订单追溯\&quot; as OrderTraceability\ndatabase \&quot;区块链网络\&quot; as BlockchainNetwork\ncomponent \&quot;食品信息管理系统\&quot; as FoodInfoManagement\ncomponent \&quot;验证系统\&quot; as VerificationSystem\n\nUser --&gt; UserManagement : 使用、管理\nUser --&gt; OrderTraceability : 查询订单追溯\n\nOrderTraceability --&gt; FoodInfoManagement : 查询生产商订单\nOrderTraceability --&gt; FoodInfoManagement : 查询分销商订单\nOrderTraceability --&gt; FoodInfoManagement : 查询经销商订单\n\nFoodInfoManagement --&gt; BlockchainNetwork : 存储食品溯源信息\nVerificationSystem --&gt; BlockchainNetwork : 验证食品溯源信息\n\n@enduml\n&quot;,&#xa;  &quot;format&quot;: &quot;svg&quot;&#xa;}" id="A5x4TnHZh8om6ndn1pDT-1">
          <mxCell style="shape=image;noLabel=1;verticalAlign=top;aspect=fixed;imageAspect=0;image=data:image/svg+xml,PD94bWwgdmVyc2lvbj0iMS4wIiBlbmNvZGluZz0idXMtYXNjaWkiIHN0YW5kYWxvbmU9Im5vIj8+PHN2ZyB4bWxucz0iaHR0cDovL3d3dy53My5vcmcvMjAwMC9zdmciIHhtbG5zOnhsaW5rPSJodHRwOi8vd3d3LnczLm9yZy8xOTk5L3hsaW5rIiBjb250ZW50U3R5bGVUeXBlPSJ0ZXh0L2NzcyIgaGVpZ2h0PSI0OTJweCIgcHJlc2VydmVBc3BlY3RSYXRpbz0ibm9uZSIgc3R5bGU9IndpZHRoOjQyOHB4O2hlaWdodDo0OTJweDtiYWNrZ3JvdW5kOiNGRkZGRkY7IiB2ZXJzaW9uPSIxLjEiIHZpZXdCb3g9IjAgMCA0MjggNDkyIiB3aWR0aD0iNDI4cHgiIHpvb21BbmRQYW49Im1hZ25pZnkiPjxkZWZzLz48Zz48dGV4dCBmaWxsPSIjMDAwMDAwIiBmb250LWZhbWlseT0ic2Fucy1zZXJpZiIgZm9udC1zaXplPSIxNCIgZm9udC13ZWlnaHQ9ImJvbGQiIGxlbmd0aEFkanVzdD0ic3BhY2luZyIgdGV4dExlbmd0aD0iMTY4IiB4PSIxMjMiIHk9IjIzLjIzNDQiPiYjMjI1MjI7JiMyMDExMDsmIzIxMzA2OyYjMjIzNTk7JiMzODE0MjsmIzMwMzQwOyYjMzkxMzU7JiMyMTY5NzsmIzI4MzM1OyYjMjgzMDQ7JiMzMTk5NTsmIzMyNDc5OzwvdGV4dD48IS0tZW50aXR5IFVzZXItLT48ZyBpZD0iZWxlbV9Vc2VyIj48ZWxsaXBzZSBjeD0iMTA4IiBjeT0iNDkuOTg0NCIgZmlsbD0iI0YxRjFGMSIgcng9IjgiIHJ5PSI4IiBzdHlsZT0ic3Ryb2tlOiMxODE4MTg7c3Ryb2tlLXdpZHRoOjAuNTsiLz48cGF0aCBkPSJNMTA4LDU3Ljk4NDQgTDEwOCw4NC45ODQ0IE05NSw2NS45ODQ0IEwxMjEsNjUuOTg0NCBNMTA4LDg0Ljk4NDQgTDk1LDk5Ljk4NDQgTTEwOCw4NC45ODQ0IEwxMjEsOTkuOTg0NCAiIGZpbGw9Im5vbmUiIHN0eWxlPSJzdHJva2U6IzE4MTgxODtzdHJva2Utd2lkdGg6MC41OyIvPjx0ZXh0IGZpbGw9IiMwMDAwMDAiIGZvbnQtZmFtaWx5PSJzYW5zLXNlcmlmIiBmb250LXNpemU9IjE0IiBsZW5ndGhBZGp1c3Q9InNwYWNpbmciIHRleHRMZW5ndGg9IjI4IiB4PSI5NCIgeT0iMTE0LjcxODgiPiYjMjk5OTI7JiMyNTE0Mzs8L3RleHQ+PC9nPjwhLS1lbnRpdHkgVXNlck1hbmFnZW1lbnQtLT48ZyBpZD0iZWxlbV9Vc2VyTWFuYWdlbWVudCI+PHJlY3QgZmlsbD0iI0YxRjFGMSIgaGVpZ2h0PSI0NC45ODQ0IiByeD0iMi41IiByeT0iMi41IiBzdHlsZT0ic3Ryb2tlOiM3MDcwNzA7c3Ryb2tlLXdpZHRoOjAuNTsiIHdpZHRoPSI5NiIgeD0iNyIgeT0iMTkxLjQ4NDQiLz48cmVjdCBmaWxsPSIjRjFGMUYxIiBoZWlnaHQ9IjEwIiBzdHlsZT0ic3Ryb2tlOiM3MDcwNzA7c3Ryb2tlLXdpZHRoOjAuNTsiIHdpZHRoPSIxNSIgeD0iODMiIHk9IjE5Ni40ODQ0Ii8+PHJlY3QgZmlsbD0iI0YxRjFGMSIgaGVpZ2h0PSIyIiBzdHlsZT0ic3Ryb2tlOiM3MDcwNzA7c3Ryb2tlLXdpZHRoOjAuNTsiIHdpZHRoPSI0IiB4PSI4MSIgeT0iMTk4LjQ4NDQiLz48cmVjdCBmaWxsPSIjRjFGMUYxIiBoZWlnaHQ9IjIiIHN0eWxlPSJzdHJva2U6IzcwNzA3MDtzdHJva2Utd2lkdGg6MC41OyIgd2lkdGg9IjQiIHg9IjgxIiB5PSIyMDIuNDg0NCIvPjx0ZXh0IGZpbGw9IiMwMDAwMDAiIGZvbnQtZmFtaWx5PSJzYW5zLXNlcmlmIiBmb250LXNpemU9IjE0IiBsZW5ndGhBZGp1c3Q9InNwYWNpbmciIHRleHRMZW5ndGg9IjU2IiB4PSIyMiIgeT0iMjI0LjcxODgiPiYjMjk5OTI7JiMyNTE0MzsmIzMxNjQ5OyYjMjk3MDI7PC90ZXh0PjwvZz48IS0tZW50aXR5IE9yZGVyVHJhY2VhYmlsaXR5LS0+PGcgaWQ9ImVsZW1fT3JkZXJUcmFjZWFiaWxpdHkiPjxyZWN0IGZpbGw9IiNGMUYxRjEiIGhlaWdodD0iNDQuOTg0NCIgcng9IjIuNSIgcnk9IjIuNSIgc3R5bGU9InN0cm9rZTojNzA3MDcwO3N0cm9rZS13aWR0aDowLjU7IiB3aWR0aD0iOTYiIHg9IjEzOCIgeT0iMTkxLjQ4NDQiLz48cmVjdCBmaWxsPSIjRjFGMUYxIiBoZWlnaHQ9IjEwIiBzdHlsZT0ic3Ryb2tlOiM3MDcwNzA7c3Ryb2tlLXdpZHRoOjAuNTsiIHdpZHRoPSIxNSIgeD0iMjE0IiB5PSIxOTYuNDg0NCIvPjxyZWN0IGZpbGw9IiNGMUYxRjEiIGhlaWdodD0iMiIgc3R5bGU9InN0cm9rZTojNzA3MDcwO3N0cm9rZS13aWR0aDowLjU7IiB3aWR0aD0iNCIgeD0iMjEyIiB5PSIxOTguNDg0NCIvPjxyZWN0IGZpbGw9IiNGMUYxRjEiIGhlaWdodD0iMiIgc3R5bGU9InN0cm9rZTojNzA3MDcwO3N0cm9rZS13aWR0aDowLjU7IiB3aWR0aD0iNCIgeD0iMjEyIiB5PSIyMDIuNDg0NCIvPjx0ZXh0IGZpbGw9IiMwMDAwMDAiIGZvbnQtZmFtaWx5PSJzYW5zLXNlcmlmIiBmb250LXNpemU9IjE0IiBsZW5ndGhBZGp1c3Q9InNwYWNpbmciIHRleHRMZW5ndGg9IjU2IiB4PSIxNTMiIHk9IjIyNC43MTg4Ij4mIzM1NzQ2OyYjMjEzMzM7JiMzNjg2MTsmIzI4MzM1OzwvdGV4dD48L2c+PCEtLWVudGl0eSBCbG9ja2NoYWluTmV0d29yay0tPjxnIGlkPSJlbGVtX0Jsb2NrY2hhaW5OZXR3b3JrIj48cGF0aCBkPSJNMjIxLDQ0MS40ODQ0IEMyMjEsNDMxLjQ4NDQgMjY2LDQzMS40ODQ0IDI2Niw0MzEuNDg0NCBDMjY2LDQzMS40ODQ0IDMxMSw0MzEuNDg0NCAzMTEsNDQxLjQ4NDQgTDMxMSw0NjUuNDY4OCBDMzExLDQ3NS40Njg4IDI2Niw0NzUuNDY4OCAyNjYsNDc1LjQ2ODggQzI2Niw0NzUuNDY4OCAyMjEsNDc1LjQ2ODggMjIxLDQ2NS40Njg4IEwyMjEsNDQxLjQ4NDQgIiBmaWxsPSIjRjFGMUYxIiBzdHlsZT0ic3Ryb2tlOiMxODE4MTg7c3Ryb2tlLXdpZHRoOjAuNTsiLz48cGF0aCBkPSJNMjIxLDQ0MS40ODQ0IEMyMjEsNDUxLjQ4NDQgMjY2LDQ1MS40ODQ0IDI2Niw0NTEuNDg0NCBDMjY2LDQ1MS40ODQ0IDMxMSw0NTEuNDg0NCAzMTEsNDQxLjQ4NDQgIiBmaWxsPSJub25lIiBzdHlsZT0ic3Ryb2tlOiMxODE4MTg7c3Ryb2tlLXdpZHRoOjAuNTsiLz48dGV4dCBmaWxsPSIjMDAwMDAwIiBmb250LWZhbWlseT0ic2Fucy1zZXJpZiIgZm9udC1zaXplPSIxNCIgbGVuZ3RoQWRqdXN0PSJzcGFjaW5nIiB0ZXh0TGVuZ3RoPSI3MCIgeD0iMjMxIiB5PSI0NjguNzE4OCI+JiMyMTMwNjsmIzIyMzU5OyYjMzgxNDI7JiMzMjU5MzsmIzMyNDc2OzwvdGV4dD48L2c+PCEtLWVudGl0eSBGb29kSW5mb01hbmFnZW1lbnQtLT48ZyBpZD0iZWxlbV9Gb29kSW5mb01hbmFnZW1lbnQiPjxyZWN0IGZpbGw9IiNGMUYxRjEiIGhlaWdodD0iNDQuOTg0NCIgcng9IjIuNSIgcnk9IjIuNSIgc3R5bGU9InN0cm9rZTojNzA3MDcwO3N0cm9rZS13aWR0aDowLjU7IiB3aWR0aD0iMTUyIiB4PSIxMTAiIHk9IjMxMS40ODQ0Ii8+PHJlY3QgZmlsbD0iI0YxRjFGMSIgaGVpZ2h0PSIxMCIgc3R5bGU9InN0cm9rZTojNzA3MDcwO3N0cm9rZS13aWR0aDowLjU7IiB3aWR0aD0iMTUiIHg9IjI0MiIgeT0iMzE2LjQ4NDQiLz48cmVjdCBmaWxsPSIjRjFGMUYxIiBoZWlnaHQ9IjIiIHN0eWxlPSJzdHJva2U6IzcwNzA3MDtzdHJva2Utd2lkdGg6MC41OyIgd2lkdGg9IjQiIHg9IjI0MCIgeT0iMzE4LjQ4NDQiLz48cmVjdCBmaWxsPSIjRjFGMUYxIiBoZWlnaHQ9IjIiIHN0eWxlPSJzdHJva2U6IzcwNzA3MDtzdHJva2Utd2lkdGg6MC41OyIgd2lkdGg9IjQiIHg9IjI0MCIgeT0iMzIyLjQ4NDQiLz48dGV4dCBmaWxsPSIjMDAwMDAwIiBmb250LWZhbWlseT0ic2Fucy1zZXJpZiIgZm9udC1zaXplPSIxNCIgbGVuZ3RoQWRqdXN0PSJzcGFjaW5nIiB0ZXh0TGVuZ3RoPSIxMTIiIHg9IjEyNSIgeT0iMzQ0LjcxODgiPiYjMzkxMzU7JiMyMTY5NzsmIzIwNDQ5OyYjMjQ2ODc7JiMzMTY0OTsmIzI5NzAyOyYjMzE5OTU7JiMzMjQ3OTs8L3RleHQ+PC9nPjwhLS1lbnRpdHkgVmVyaWZpY2F0aW9uU3lzdGVtLS0+PGcgaWQ9ImVsZW1fVmVyaWZpY2F0aW9uU3lzdGVtIj48cmVjdCBmaWxsPSIjRjFGMUYxIiBoZWlnaHQ9IjQ0Ljk4NDQiIHJ4PSIyLjUiIHJ5PSIyLjUiIHN0eWxlPSJzdHJva2U6IzcwNzA3MDtzdHJva2Utd2lkdGg6MC41OyIgd2lkdGg9Ijk2IiB4PSIyOTciIHk9IjMxMS40ODQ0Ii8+PHJlY3QgZmlsbD0iI0YxRjFGMSIgaGVpZ2h0PSIxMCIgc3R5bGU9InN0cm9rZTojNzA3MDcwO3N0cm9rZS13aWR0aDowLjU7IiB3aWR0aD0iMTUiIHg9IjM3MyIgeT0iMzE2LjQ4NDQiLz48cmVjdCBmaWxsPSIjRjFGMUYxIiBoZWlnaHQ9IjIiIHN0eWxlPSJzdHJva2U6IzcwNzA3MDtzdHJva2Utd2lkdGg6MC41OyIgd2lkdGg9IjQiIHg9IjM3MSIgeT0iMzE4LjQ4NDQiLz48cmVjdCBmaWxsPSIjRjFGMUYxIiBoZWlnaHQ9IjIiIHN0eWxlPSJzdHJva2U6IzcwNzA3MDtzdHJva2Utd2lkdGg6MC41OyIgd2lkdGg9IjQiIHg9IjM3MSIgeT0iMzIyLjQ4NDQiLz48dGV4dCBmaWxsPSIjMDAwMDAwIiBmb250LWZhbWlseT0ic2Fucy1zZXJpZiIgZm9udC1zaXplPSIxNCIgbGVuZ3RoQWRqdXN0PSJzcGFjaW5nIiB0ZXh0TGVuZ3RoPSI1NiIgeD0iMzEyIiB5PSIzNDQuNzE4OCI+JiMzOTU2NDsmIzM1Nzc3OyYjMzE5OTU7JiMzMjQ3OTs8L3RleHQ+PC9nPjwhLS1saW5rIFVzZXIgdG8gVXNlck1hbmFnZW1lbnQtLT48ZyBpZD0ibGlua19Vc2VyX1VzZXJNYW5hZ2VtZW50Ij48cGF0aCBkPSJNOTMuOTIsOTYuNTg0NCBDODMuODgsMTA5LjM3NDQgNzAuOTYsMTI3Ljk1NDQgNjQsMTQ2LjQ4NDQgQzU5LjI3LDE1OS4wODQ0IDU2Ljk3LDE3My44NDQ0IDU1Ljg4LDE4Ni4yNjQ0ICIgZmlsbD0ibm9uZSIgaWQ9IlVzZXItdG8tVXNlck1hbmFnZW1lbnQiIHN0eWxlPSJzdHJva2U6IzcwNzA3MDtzdHJva2Utd2lkdGg6MS4wOyIvPjxwb2x5Z29uIGZpbGw9IiM3MDcwNzAiIHBvaW50cz0iNTUuNDgsMTkxLjQyNDQsNjAuMTYyMywxODIuNzU5Nyw1NS44NjU3LDE4Ni40MzkzLDUyLjE4NjEsMTgyLjE0MjcsNTUuNDgsMTkxLjQyNDQiIHN0eWxlPSJzdHJva2U6IzcwNzA3MDtzdHJva2Utd2lkdGg6MS4wOyIvPjx0ZXh0IGZpbGw9IiMwMDAwMDAiIGZvbnQtZmFtaWx5PSJzYW5zLXNlcmlmIiBmb250LXNpemU9IjEzIiBsZW5ndGhBZGp1c3Q9InNwYWNpbmciIHRleHRMZW5ndGg9IjY1IiB4PSI2NSIgeT0iMTU5Ljc3MzQiPiYjMjAzNTE7JiMyOTk5MjsmIzEyMjg5OyYjMzE2NDk7JiMyOTcwMjs8L3RleHQ+PC9nPjwhLS1saW5rIFVzZXIgdG8gT3JkZXJUcmFjZWFiaWxpdHktLT48ZyBpZD0ibGlua19Vc2VyX09yZGVyVHJhY2VhYmlsaXR5Ij48cGF0aCBkPSJNMTIyLjEzLDEwNC4wNzQ0IEMxMzUuODUsMTI3LjQ2NDQgMTU2LjYyLDE2Mi44ODQ0IDE3MC43MiwxODYuOTI0NCAiIGZpbGw9Im5vbmUiIGlkPSJVc2VyLXRvLU9yZGVyVHJhY2VhYmlsaXR5IiBzdHlsZT0ic3Ryb2tlOiM3MDcwNzA7c3Ryb2tlLXdpZHRoOjEuMDsiLz48cG9seWdvbiBmaWxsPSIjNzA3MDcwIiBwb2ludHM9IjE3My4yNywxOTEuMjg0NCwxNzIuMTcwMSwxODEuNDk3MSwxNzAuNzQxOCwxODYuOTcwNywxNjUuMjY4MiwxODUuNTQyMywxNzMuMjcsMTkxLjI4NDQiIHN0eWxlPSJzdHJva2U6IzcwNzA3MDtzdHJva2Utd2lkdGg6MS4wOyIvPjx0ZXh0IGZpbGw9IiMwMDAwMDAiIGZvbnQtZmFtaWx5PSJzYW5zLXNlcmlmIiBmb250LXNpemU9IjEzIiBsZW5ndGhBZGp1c3Q9InNwYWNpbmciIHRleHRMZW5ndGg9Ijc4IiB4PSIxNTUiIHk9IjE1OS43NzM0Ij4mIzI2NTk3OyYjMzU4MTA7JiMzNTc0NjsmIzIxMzMzOyYjMzY4NjE7JiMyODMzNTs8L3RleHQ+PC9nPjwhLS1saW5rIE9yZGVyVHJhY2VhYmlsaXR5IHRvIEZvb2RJbmZvTWFuYWdlbWVudC0tPjxnIGlkPSJsaW5rX09yZGVyVHJhY2VhYmlsaXR5X0Zvb2RJbmZvTWFuYWdlbWVudCI+PHBhdGggZD0iTTEzNy44NywyMzEuNzU0NCBDOTkuODUsMjQ1LjIzNDQgNTIuNzIsMjYyLjU1NDQgNTAsMjY2LjQ4NDQgQzMwLjc3LDI5NC4zMjQ0IDY1LjI3LDMxMC45NzQ0IDEwNC4zMiwzMjAuNjU0NCAiIGZpbGw9Im5vbmUiIGlkPSJPcmRlclRyYWNlYWJpbGl0eS10by1Gb29kSW5mb01hbmFnZW1lbnQiIHN0eWxlPSJzdHJva2U6IzcwNzA3MDtzdHJva2Utd2lkdGg6MS4wOyIvPjxwb2x5Z29uIGZpbGw9IiM3MDcwNzAiIHBvaW50cz0iMTA5LjYsMzIxLjkyNDQsMTAxLjc2ODEsMzE1Ljk1MjcsMTA0LjczNTQsMzIwLjc2ODgsOTkuOTE5MiwzMjMuNzM2MSwxMDkuNiwzMjEuOTI0NCIgc3R5bGU9InN0cm9rZTojNzA3MDcwO3N0cm9rZS13aWR0aDoxLjA7Ii8+PHRleHQgZmlsbD0iIzAwMDAwMCIgZm9udC1mYW1pbHk9InNhbnMtc2VyaWYiIGZvbnQtc2l6ZT0iMTMiIGxlbmd0aEFkanVzdD0ic3BhY2luZyIgdGV4dExlbmd0aD0iOTEiIHg9IjUxIiB5PSIyNzkuNzczNCI+JiMyNjU5NzsmIzM1ODEwOyYjMjk5ODM7JiMyMDEzNTsmIzIxODMwOyYjMzU3NDY7JiMyMTMzMzs8L3RleHQ+PC9nPjwhLS1saW5rIE9yZGVyVHJhY2VhYmlsaXR5IHRvIEZvb2RJbmZvTWFuYWdlbWVudC0tPjxnIGlkPSJsaW5rX09yZGVyVHJhY2VhYmlsaXR5X0Zvb2RJbmZvTWFuYWdlbWVudCI+PHBhdGggZD0iTTE4NC40NywyMzYuNTI0NCBDMTgzLjg4LDI0NS43NDQ0IDE4My4yOSwyNTYuNjM0NCAxODMsMjY2LjQ4NDQgQzE4Mi42MiwyNzkuNjI0NCAxODMuMTcsMjk0LjIxNDQgMTgzLjksMzA2LjM3NDQgIiBmaWxsPSJub25lIiBpZD0iT3JkZXJUcmFjZWFiaWxpdHktdG8tRm9vZEluZm9NYW5hZ2VtZW50LTEiIHN0eWxlPSJzdHJva2U6IzcwNzA3MDtzdHJva2Utd2lkdGg6MS4wOyIvPjxwb2x5Z29uIGZpbGw9IiM3MDcwNzAiIHBvaW50cz0iMTg0LjIyLDMxMS40MjQ0LDE4Ny42NDc1LDMwMi4xOTEyLDE4My45MDYzLDMwNi40MzQyLDE3OS42NjMzLDMwMi42OTMsMTg0LjIyLDMxMS40MjQ0IiBzdHlsZT0ic3Ryb2tlOiM3MDcwNzA7c3Ryb2tlLXdpZHRoOjEuMDsiLz48dGV4dCBmaWxsPSIjMDAwMDAwIiBmb250LWZhbWlseT0ic2Fucy1zZXJpZiIgZm9udC1zaXplPSIxMyIgbGVuZ3RoQWRqdXN0PSJzcGFjaW5nIiB0ZXh0TGVuZ3RoPSI5MSIgeD0iMTg0IiB5PSIyNzkuNzczNCI+JiMyNjU5NzsmIzM1ODEwOyYjMjA5OTg7JiMzODE0NDsmIzIxODMwOyYjMzU3NDY7JiMyMTMzMzs8L3RleHQ+PC9nPjwhLS1saW5rIE9yZGVyVHJhY2VhYmlsaXR5IHRvIEZvb2RJbmZvTWFuYWdlbWVudC0tPjxnIGlkPSJsaW5rX09yZGVyVHJhY2VhYmlsaXR5X0Zvb2RJbmZvTWFuYWdlbWVudCI+PHBhdGggZD0iTTIzNC4xNSwyMjkuNjA0NCBDMjUxLjc3LDIzNy41NDQ0IDI2OS44NSwyNDkuMzU0NCAyODAsMjY2LjQ4NDQgQzI5MC40NywyODQuMTU0NCAyNzcuNCwyOTguMzU0NCAyNTcuOTksMzA5LjAxNDQgIiBmaWxsPSJub25lIiBpZD0iT3JkZXJUcmFjZWFiaWxpdHktdG8tRm9vZEluZm9NYW5hZ2VtZW50LTIiIHN0eWxlPSJzdHJva2U6IzcwNzA3MDtzdHJva2Utd2lkdGg6MS4wOyIvPjxwb2x5Z29uIGZpbGw9IiM3MDcwNzAiIHBvaW50cz0iMjUzLjQ5LDMxMS4zNzQ0LDI2My4zMTkxLDMxMC43NTExLDI1Ny45MjE0LDMwOS4wNTg2LDI1OS42MTM5LDMwMy42NjA5LDI1My40OSwzMTEuMzc0NCIgc3R5bGU9InN0cm9rZTojNzA3MDcwO3N0cm9rZS13aWR0aDoxLjA7Ii8+PHRleHQgZmlsbD0iIzAwMDAwMCIgZm9udC1mYW1pbHk9InNhbnMtc2VyaWYiIGZvbnQtc2l6ZT0iMTMiIGxlbmd0aEFkanVzdD0ic3BhY2luZyIgdGV4dExlbmd0aD0iOTEiIHg9IjI4NCIgeT0iMjc5Ljc3MzQiPiYjMjY1OTc7JiMzNTgxMDsmIzMyNDYzOyYjMzgxNDQ7JiMyMTgzMDsmIzM1NzQ2OyYjMjEzMzM7PC90ZXh0PjwvZz48IS0tbGluayBGb29kSW5mb01hbmFnZW1lbnQgdG8gQmxvY2tjaGFpbk5ldHdvcmstLT48ZyBpZD0ibGlua19Gb29kSW5mb01hbmFnZW1lbnRfQmxvY2tjaGFpbk5ldHdvcmsiPjxwYXRoIGQ9Ik0xODMuNDUsMzU2Ljc2NDQgQzE4Mi44OSwzNzAuNDg0NCAxODQuMTcsMzg4LjA3NDQgMTkyLDQwMS40ODQ0IEMxOTguMiw0MTIuMDk0NCAyMDcuNTgsNDIxLjAwNDQgMjE3LjYxLDQyOC4yNTQ0ICIgZmlsbD0ibm9uZSIgaWQ9IkZvb2RJbmZvTWFuYWdlbWVudC10by1CbG9ja2NoYWluTmV0d29yayIgc3R5bGU9InN0cm9rZTojNzA3MDcwO3N0cm9rZS13aWR0aDoxLjA7Ii8+PHBvbHlnb24gZmlsbD0iIzcwNzA3MCIgcG9pbnRzPSIyMjEuOTQsNDMxLjI1NDQsMjE2LjgwOTUsNDIyLjg0NzMsMjE3LjgyNjUsNDI4LjQxMiwyMTIuMjYxOCw0MjkuNDI5LDIyMS45NCw0MzEuMjU0NCIgc3R5bGU9InN0cm9rZTojNzA3MDcwO3N0cm9rZS13aWR0aDoxLjA7Ii8+PHRleHQgZmlsbD0iIzAwMDAwMCIgZm9udC1mYW1pbHk9InNhbnMtc2VyaWYiIGZvbnQtc2l6ZT0iMTMiIGxlbmd0aEFkanVzdD0ic3BhY2luZyIgdGV4dExlbmd0aD0iMTA0IiB4PSIxOTMiIHk9IjM5OS43NzM0Ij4mIzIzMzg0OyYjMjA2NDg7JiMzOTEzNTsmIzIxNjk3OyYjMjgzMzU7JiMyODMwNDsmIzIwNDQ5OyYjMjQ2ODc7PC90ZXh0PjwvZz48IS0tbGluayBWZXJpZmljYXRpb25TeXN0ZW0gdG8gQmxvY2tjaGFpbk5ldHdvcmstLT48ZyBpZD0ibGlua19WZXJpZmljYXRpb25TeXN0ZW1fQmxvY2tjaGFpbk5ldHdvcmsiPjxwYXRoIGQ9Ik0zMzMuMjQsMzU2LjcwNDQgQzMyNS44NSwzNjkuOTE0NCAzMTUuODcsMzg2Ljk5NDQgMzA2LDQwMS40ODQ0IEMzMDAuMjMsNDA5Ljk2NDQgMjkzLjUsNDE4Ljg2NDQgMjg3LjIyLDQyNi44MTQ0ICIgZmlsbD0ibm9uZSIgaWQ9IlZlcmlmaWNhdGlvblN5c3RlbS10by1CbG9ja2NoYWluTmV0d29yayIgc3R5bGU9InN0cm9rZTojNzA3MDcwO3N0cm9rZS13aWR0aDoxLjA7Ii8+PHBvbHlnb24gZmlsbD0iIzcwNzA3MCIgcG9pbnRzPSIyODMuNzksNDMxLjEyNDQsMjkyLjUzMTcsNDI2LjU4NzUsMjg2LjkxLDQyNy4yMTcyLDI4Ni4yODAzLDQyMS41OTU1LDI4My43OSw0MzEuMTI0NCIgc3R5bGU9InN0cm9rZTojNzA3MDcwO3N0cm9rZS13aWR0aDoxLjA7Ii8+PHRleHQgZmlsbD0iIzAwMDAwMCIgZm9udC1mYW1pbHk9InNhbnMtc2VyaWYiIGZvbnQtc2l6ZT0iMTMiIGxlbmd0aEFkanVzdD0ic3BhY2luZyIgdGV4dExlbmd0aD0iMTA0IiB4PSIzMTYiIHk9IjM5OS43NzM0Ij4mIzM5NTY0OyYjMzU3Nzc7JiMzOTEzNTsmIzIxNjk3OyYjMjgzMzU7JiMyODMwNDsmIzIwNDQ5OyYjMjQ2ODc7PC90ZXh0PjwvZz48IS0tU1JDPVtmUEZWUVhEMTVDUmx2b2NjeVFPNWFwSEk0NDhSc0FJZjJhcVlJUWhOaXZqOUNjR3A0c09kbllmMjhuOXdLUk5JNTRNS3E4Zk8xOWlCQnVHRENHelpEZmt5WFJGUF9Fck1HVG81Tk5SY1R4dXZ2X2xPYkhwRTR1Z1h5WjFwVm8tbjJ1ajJMOG5tQ0NYSEJMMFdlYlhMZ21SYzZnQzJLbjdHTTNjOFFlUUVMQ0R2LXVkU0NGbnZubHFMN0w1SEJVbDFIdzZEbTdlbUhtbTFtQ2Y0XzZ2U3NPd2RHd2lRcW5iVld2anZBR1Y3N3JsWlBzSEpaTG8xUl9xNURpV0o3MHZqQjVLYktpZEtKWWdQZFYxdmZFNGpOdTlIZjM1VjEwMTFYOHdYckpCeHZZbGhvQkctbFhzVF9CSlZsblh6UWJhZHpPN1A3Zlo3emxVRXRNZERrcXg3T3JhYlVNU3RsZWZrR2RLRFNnbTlIMGpJMXE1YUc3SzZSWWpQOVFmYWZibUUyUUdZbXVDZmlNbWdGTTZHOVhZVjBpMGU0TGYxNzlNWEg1NUw1cmR5TTJXd0FUMG9UZVFOM3ltTkExYjNYTDVkd29jMHllZW9kaUN5dmhXM1J6blVULXhua2k4dmdvcWxGbUYwRlRqa05XbUVWcFdEeENjMG1McEl2LXhPYnNWc1NTQ3QxSEE4ZVc5c3NiYjRYdlZkcmlsSk9ReWg3SG9aQVFVSEI5Vms4dk5lSEVvM2NIay1rVV9URHRSZG12WUZ3YW1oUUtMNFExQUI2a0ViSE5LdGQ3eGxSNTFsay1zdTRPcWhUblpCdFFEdlRkclpld3o3bXRQejBOLTBFU2FKM0dkMlE2UlY0QldDVzNDTnpGaVpMbVE0T1RabHpnR0JsbXhneGg1cHFaRVZYMFVqcHlGcy1ROEwwN1d2ZnpoUnl3cFNSaFJ3dlhWaGpFN2dfQmswVFRXT0RHXy1HeTNrbDV1STBEVW1aZUdkQ2diV1ZOamRGUnpPXzlkU3I4M056Wnpnazk1dkROdTNdLS0+PC9nPjwvc3ZnPg==;" vertex="1" parent="1">
            <mxGeometry x="-520" y="-3490" width="428" height="492" as="geometry" />
          </mxCell>
        </UserObject>
        <UserObject label="" plantUmlData="{&#xa;  &quot;data&quot;: &quot;@startuml\n\n!define AWSPUML https://raw.githubusercontent.com/awslabs/aws-icons-for-plantuml/v14.0/dist\n\n!define HEADER1(color) &lt;font color=color&gt;&lt;b&gt;\n!define HEADER2(color) &lt;font color=color&gt;&lt;size:14&gt;&lt;b&gt;\n!define MONOFONT &lt;font face=\&quot;Monaco\&quot;&gt;\n\ntitle 区块链食品溯源智能合约角色UML用例图\n\nactor 用户 as User\nparticipant \&quot;智能合约\&quot; as SmartContract\n\nUser --&gt; SmartContract : 存储食品溯源信息\nUser --&gt; SmartContract : 记录生产商订单\nUser --&gt; SmartContract : 记录分销商订单\nUser --&gt; SmartContract : 记录经销商订单\nUser --&gt; SmartContract : 验证溯源信息的真实性\n\n@enduml\n&quot;,&#xa;  &quot;format&quot;: &quot;svg&quot;&#xa;}" id="A5x4TnHZh8om6ndn1pDT-2">
          <mxCell style="shape=image;noLabel=1;verticalAlign=top;aspect=fixed;imageAspect=0;image=data:image/svg+xml,PD94bWwgdmVyc2lvbj0iMS4wIiBlbmNvZGluZz0idXMtYXNjaWkiIHN0YW5kYWxvbmU9Im5vIj8+PHN2ZyB4bWxucz0iaHR0cDovL3d3dy53My5vcmcvMjAwMC9zdmciIHhtbG5zOnhsaW5rPSJodHRwOi8vd3d3LnczLm9yZy8xOTk5L3hsaW5rIiBjb250ZW50U3R5bGVUeXBlPSJ0ZXh0L2NzcyIgaGVpZ2h0PSIzNTVweCIgcHJlc2VydmVBc3BlY3RSYXRpbz0ibm9uZSIgc3R5bGU9IndpZHRoOjI3M3B4O2hlaWdodDozNTVweDtiYWNrZ3JvdW5kOiNGRkZGRkY7IiB2ZXJzaW9uPSIxLjEiIHZpZXdCb3g9IjAgMCAyNzMgMzU1IiB3aWR0aD0iMjczcHgiIHpvb21BbmRQYW49Im1hZ25pZnkiPjxkZWZzLz48Zz48dGV4dCBmaWxsPSIjMDAwMDAwIiBmb250LWZhbWlseT0ic2Fucy1zZXJpZiIgZm9udC1zaXplPSIxNCIgZm9udC13ZWlnaHQ9ImJvbGQiIGxlbmd0aEFkanVzdD0ic3BhY2luZyIgdGV4dExlbmd0aD0iMjQ1IiB4PSIxMCIgeT0iMjguMjM0NCI+JiMyMTMwNjsmIzIyMzU5OyYjMzgxNDI7JiMzOTEzNTsmIzIxNjk3OyYjMjgzMzU7JiMyODMwNDsmIzI2MjM0OyYjMzMwMjE7JiMyMTUxMjsmIzMyNDIyOyYjMzUyODI7JiMzMzM5NDtVTUwmIzI5OTkyOyYjMjAzNjM7JiMyMjI3MDs8L3RleHQ+PGxpbmUgc3R5bGU9InN0cm9rZTojMTgxODE4O3N0cm9rZS13aWR0aDowLjU7c3Ryb2tlLWRhc2hhcnJheTo1LjAsNS4wOyIgeDE9IjQ3IiB4Mj0iNDciIHkxPSIxMTUuOTY4OCIgeTI9IjI3NS41MzkxIi8+PGxpbmUgc3R5bGU9InN0cm9rZTojMTgxODE4O3N0cm9rZS13aWR0aDowLjU7c3Ryb2tlLWRhc2hhcnJheTo1LjAsNS4wOyIgeDE9IjIwMSIgeDI9IjIwMSIgeTE9IjExNS45Njg4IiB5Mj0iMjc1LjUzOTEiLz48dGV4dCBmaWxsPSIjMDAwMDAwIiBmb250LWZhbWlseT0ic2Fucy1zZXJpZiIgZm9udC1zaXplPSIxNCIgbGVuZ3RoQWRqdXN0PSJzcGFjaW5nIiB0ZXh0TGVuZ3RoPSIyOCIgeD0iMzAiIHk9IjExNC4yMTg4Ij4mIzI5OTkyOyYjMjUxNDM7PC90ZXh0PjxlbGxpcHNlIGN4PSI0NyIgY3k9IjQ5LjQ4NDQiIGZpbGw9IiNFMkUyRjAiIHJ4PSI4IiByeT0iOCIgc3R5bGU9InN0cm9rZTojMTgxODE4O3N0cm9rZS13aWR0aDowLjU7Ii8+PHBhdGggZD0iTTQ3LDU3LjQ4NDQgTDQ3LDg0LjQ4NDQgTTM0LDY1LjQ4NDQgTDYwLDY1LjQ4NDQgTTQ3LDg0LjQ4NDQgTDM0LDk5LjQ4NDQgTTQ3LDg0LjQ4NDQgTDYwLDk5LjQ4NDQgIiBmaWxsPSJub25lIiBzdHlsZT0ic3Ryb2tlOiMxODE4MTg7c3Ryb2tlLXdpZHRoOjAuNTsiLz48dGV4dCBmaWxsPSIjMDAwMDAwIiBmb250LWZhbWlseT0ic2Fucy1zZXJpZiIgZm9udC1zaXplPSIxNCIgbGVuZ3RoQWRqdXN0PSJzcGFjaW5nIiB0ZXh0TGVuZ3RoPSIyOCIgeD0iMzAiIHk9IjI4Ny43NzM0Ij4mIzI5OTkyOyYjMjUxNDM7PC90ZXh0PjxlbGxpcHNlIGN4PSI0NyIgY3k9IjI5OC4wMjM0IiBmaWxsPSIjRTJFMkYwIiByeD0iOCIgcnk9IjgiIHN0eWxlPSJzdHJva2U6IzE4MTgxODtzdHJva2Utd2lkdGg6MC41OyIvPjxwYXRoIGQ9Ik00NywzMDYuMDIzNCBMNDcsMzMzLjAyMzQgTTM0LDMxNC4wMjM0IEw2MCwzMTQuMDIzNCBNNDcsMzMzLjAyMzQgTDM0LDM0OC4wMjM0IE00NywzMzMuMDIzNCBMNjAsMzQ4LjAyMzQgIiBmaWxsPSJub25lIiBzdHlsZT0ic3Ryb2tlOiMxODE4MTg7c3Ryb2tlLXdpZHRoOjAuNTsiLz48cmVjdCBmaWxsPSIjRTJFMkYwIiBoZWlnaHQ9IjI4Ljk4NDQiIHJ4PSIyLjUiIHJ5PSIyLjUiIHN0eWxlPSJzdHJva2U6IzE4MTgxODtzdHJva2Utd2lkdGg6MC41OyIgd2lkdGg9IjcwIiB4PSIxNjYiIHk9Ijg1Ljk4NDQiLz48dGV4dCBmaWxsPSIjMDAwMDAwIiBmb250LWZhbWlseT0ic2Fucy1zZXJpZiIgZm9udC1zaXplPSIxNCIgbGVuZ3RoQWRqdXN0PSJzcGFjaW5nIiB0ZXh0TGVuZ3RoPSI1NiIgeD0iMTczIiB5PSIxMDYuMjE4OCI+JiMyNjIzNDsmIzMzMDIxOyYjMjE1MTI7JiMzMjQyMjs8L3RleHQ+PHJlY3QgZmlsbD0iI0UyRTJGMCIgaGVpZ2h0PSIyOC45ODQ0IiByeD0iMi41IiByeT0iMi41IiBzdHlsZT0ic3Ryb2tlOiMxODE4MTg7c3Ryb2tlLXdpZHRoOjAuNTsiIHdpZHRoPSI3MCIgeD0iMTY2IiB5PSIyNzQuNTM5MSIvPjx0ZXh0IGZpbGw9IiMwMDAwMDAiIGZvbnQtZmFtaWx5PSJzYW5zLXNlcmlmIiBmb250LXNpemU9IjE0IiBsZW5ndGhBZGp1c3Q9InNwYWNpbmciIHRleHRMZW5ndGg9IjU2IiB4PSIxNzMiIHk9IjI5NC43NzM0Ij4mIzI2MjM0OyYjMzMwMjE7JiMyMTUxMjsmIzMyNDIyOzwvdGV4dD48cG9seWdvbiBmaWxsPSIjMTgxODE4IiBwb2ludHM9IjE4OSwxNDEuODgyOCwxOTksMTQ1Ljg4MjgsMTg5LDE0OS44ODI4LDE5MywxNDUuODgyOCIgc3R5bGU9InN0cm9rZTojMTgxODE4O3N0cm9rZS13aWR0aDoxLjA7Ii8+PGxpbmUgc3R5bGU9InN0cm9rZTojMTgxODE4O3N0cm9rZS13aWR0aDoxLjA7c3Ryb2tlLWRhc2hhcnJheToyLjAsMi4wOyIgeDE9IjQ3IiB4Mj0iMTk1IiB5MT0iMTQ1Ljg4MjgiIHkyPSIxNDUuODgyOCIvPjx0ZXh0IGZpbGw9IiMwMDAwMDAiIGZvbnQtZmFtaWx5PSJzYW5zLXNlcmlmIiBmb250LXNpemU9IjEzIiBsZW5ndGhBZGp1c3Q9InNwYWNpbmciIHRleHRMZW5ndGg9IjEwNCIgeD0iNTQiIHk9IjE0Mi4yNTc4Ij4mIzIzMzg0OyYjMjA2NDg7JiMzOTEzNTsmIzIxNjk3OyYjMjgzMzU7JiMyODMwNDsmIzIwNDQ5OyYjMjQ2ODc7PC90ZXh0Pjxwb2x5Z29uIGZpbGw9IiMxODE4MTgiIHBvaW50cz0iMTg5LDE2OS43OTY5LDE5OSwxNzMuNzk2OSwxODksMTc3Ljc5NjksMTkzLDE3My43OTY5IiBzdHlsZT0ic3Ryb2tlOiMxODE4MTg7c3Ryb2tlLXdpZHRoOjEuMDsiLz48bGluZSBzdHlsZT0ic3Ryb2tlOiMxODE4MTg7c3Ryb2tlLXdpZHRoOjEuMDtzdHJva2UtZGFzaGFycmF5OjIuMCwyLjA7IiB4MT0iNDciIHgyPSIxOTUiIHkxPSIxNzMuNzk2OSIgeTI9IjE3My43OTY5Ii8+PHRleHQgZmlsbD0iIzAwMDAwMCIgZm9udC1mYW1pbHk9InNhbnMtc2VyaWYiIGZvbnQtc2l6ZT0iMTMiIGxlbmd0aEFkanVzdD0ic3BhY2luZyIgdGV4dExlbmd0aD0iOTEiIHg9IjU0IiB5PSIxNzAuMTcxOSI+JiMzNTc2MDsmIzI0NDA1OyYjMjk5ODM7JiMyMDEzNTsmIzIxODMwOyYjMzU3NDY7JiMyMTMzMzs8L3RleHQ+PHBvbHlnb24gZmlsbD0iIzE4MTgxOCIgcG9pbnRzPSIxODksMTk3LjcxMDksMTk5LDIwMS43MTA5LDE4OSwyMDUuNzEwOSwxOTMsMjAxLjcxMDkiIHN0eWxlPSJzdHJva2U6IzE4MTgxODtzdHJva2Utd2lkdGg6MS4wOyIvPjxsaW5lIHN0eWxlPSJzdHJva2U6IzE4MTgxODtzdHJva2Utd2lkdGg6MS4wO3N0cm9rZS1kYXNoYXJyYXk6Mi4wLDIuMDsiIHgxPSI0NyIgeDI9IjE5NSIgeTE9IjIwMS43MTA5IiB5Mj0iMjAxLjcxMDkiLz48dGV4dCBmaWxsPSIjMDAwMDAwIiBmb250LWZhbWlseT0ic2Fucy1zZXJpZiIgZm9udC1zaXplPSIxMyIgbGVuZ3RoQWRqdXN0PSJzcGFjaW5nIiB0ZXh0TGVuZ3RoPSI5MSIgeD0iNTQiIHk9IjE5OC4wODU5Ij4mIzM1NzYwOyYjMjQ0MDU7JiMyMDk5ODsmIzM4MTQ0OyYjMjE4MzA7JiMzNTc0NjsmIzIxMzMzOzwvdGV4dD48cG9seWdvbiBmaWxsPSIjMTgxODE4IiBwb2ludHM9IjE4OSwyMjUuNjI1LDE5OSwyMjkuNjI1LDE4OSwyMzMuNjI1LDE5MywyMjkuNjI1IiBzdHlsZT0ic3Ryb2tlOiMxODE4MTg7c3Ryb2tlLXdpZHRoOjEuMDsiLz48bGluZSBzdHlsZT0ic3Ryb2tlOiMxODE4MTg7c3Ryb2tlLXdpZHRoOjEuMDtzdHJva2UtZGFzaGFycmF5OjIuMCwyLjA7IiB4MT0iNDciIHgyPSIxOTUiIHkxPSIyMjkuNjI1IiB5Mj0iMjI5LjYyNSIvPjx0ZXh0IGZpbGw9IiMwMDAwMDAiIGZvbnQtZmFtaWx5PSJzYW5zLXNlcmlmIiBmb250LXNpemU9IjEzIiBsZW5ndGhBZGp1c3Q9InNwYWNpbmciIHRleHRMZW5ndGg9IjkxIiB4PSI1NCIgeT0iMjI2Ij4mIzM1NzYwOyYjMjQ0MDU7JiMzMjQ2MzsmIzM4MTQ0OyYjMjE4MzA7JiMzNTc0NjsmIzIxMzMzOzwvdGV4dD48cG9seWdvbiBmaWxsPSIjMTgxODE4IiBwb2ludHM9IjE4OSwyNTMuNTM5MSwxOTksMjU3LjUzOTEsMTg5LDI2MS41MzkxLDE5MywyNTcuNTM5MSIgc3R5bGU9InN0cm9rZTojMTgxODE4O3N0cm9rZS13aWR0aDoxLjA7Ii8+PGxpbmUgc3R5bGU9InN0cm9rZTojMTgxODE4O3N0cm9rZS13aWR0aDoxLjA7c3Ryb2tlLWRhc2hhcnJheToyLjAsMi4wOyIgeDE9IjQ3IiB4Mj0iMTk1IiB5MT0iMjU3LjUzOTEiIHkyPSIyNTcuNTM5MSIvPjx0ZXh0IGZpbGw9IiMwMDAwMDAiIGZvbnQtZmFtaWx5PSJzYW5zLXNlcmlmIiBmb250LXNpemU9IjEzIiBsZW5ndGhBZGp1c3Q9InNwYWNpbmciIHRleHRMZW5ndGg9IjEzMCIgeD0iNTQiIHk9IjI1My45MTQxIj4mIzM5NTY0OyYjMzU3Nzc7JiMyODMzNTsmIzI4MzA0OyYjMjA0NDk7JiMyNDY4NzsmIzMwMzQwOyYjMzA0OTU7JiMyMzQ1NDsmIzI0NjE1OzwvdGV4dD48IS0tU1JDPVtaUDFESW05SDU4UnR6clRTUHJNQlNKOVNZR3Y4NklySTh2Rk1ydDdDV041Y2NCYWNqRDhBQ0pBSUxGZkVBYVc5cWNXSko2WF9uWmlWX3dBaGtEMldTZENrdnZwZFZOZGx5UUo1WkFJOENCb0pzNG42RHMwTU95cThTOW9FMmp2VDJNVnBnUm1Yd2VBZ081NzFOYTdEU1FYV28yWGJaNXZNZVdrM3BRV3dneWI4bVZjU3BFdHZfRHViQllxUDYwM0ZuN216NGJ3RFJGYU0xNUxNektLT3A1MHhFNnYydXllN0tfbUZVRmFGczkzc25PM0ZGd0VBbmNGbmpOWGlVeTlkYTIyNmNBWWc4NDViVTAybVg2S0hhZ2Y5eFl4Uy1pMXpRZjV3b0o5eGJiY3BoYXBkaTR6ZzVUanlUamhkcGw0eGxPRlR3MG03OS1IYzAwMElpQWYzRWgwZzduMFBDNGRsMEpJYU9xY0dERmZmbzRteEMyQ2FhUUZoNVBmM2ZzODBIV2g4aWxwaTcwT1dVUnFhMXZ0ZkNDRWwxd2xLLXJ0WFREejhsc2F0TWFFcEpQZmJmX2o4SmZsX3VRSElUWGw1a043eHlzbS10N3NmRWhzUHVGUnJhTnRSOGpyeGd6Wi0xVzAwXS0tPjwvZz48L3N2Zz4=;" vertex="1" parent="1">
            <mxGeometry x="-580" y="-2970" width="273" height="355" as="geometry" />
          </mxCell>
        </UserObject>
        <UserObject label="" plantUmlData="{&#xa;  &quot;data&quot;: &quot;@startuml\n\n!define AWSPUML https://raw.githubusercontent.com/awslabs/aws-icons-for-plantuml/v14.0/dist\n\n!define HEADER1(color) &lt;font color=color&gt;&lt;b&gt;\n!define HEADER2(color) &lt;font color=color&gt;&lt;size:14&gt;&lt;b&gt;\n!define MONOFONT &lt;font face=\&quot;Monaco\&quot;&gt;\n\ntitle 区块链食品溯源智能合约时序图\n\nactor 用户 as User\nparticipant \&quot;智能合约\&quot; as SmartContract\nparticipant \&quot;区块链网络\&quot; as BlockchainNetwork\n\nUser -&gt; SmartContract : 存储食品溯源信息\nSmartContract -&gt; BlockchainNetwork : 存储溯源数据\n\nUser -&gt; SmartContract : 记录生产商订单\nSmartContract -&gt; SmartContract : 添加生产商订单信息\n\nUser -&gt; SmartContract : 记录分销商订单\nSmartContract -&gt; SmartContract : 添加分销商订单信息\n\nUser -&gt; SmartContract : 记录经销商订单\nSmartContract -&gt; SmartContract : 添加经销商订单信息\n\nUser -&gt; SmartContract : 验证溯源信息的真实性\nSmartContract -&gt; BlockchainNetwork : 获取溯源数据\nSmartContract -&gt; SmartContract : 验证数据的真实性\n\n@enduml\n&quot;,&#xa;  &quot;format&quot;: &quot;svg&quot;&#xa;}" id="A5x4TnHZh8om6ndn1pDT-3">
          <mxCell style="shape=image;noLabel=1;verticalAlign=top;aspect=fixed;imageAspect=0;image=data:image/svg+xml,PD94bWwgdmVyc2lvbj0iMS4wIiBlbmNvZGluZz0idXMtYXNjaWkiIHN0YW5kYWxvbmU9Im5vIj8+PHN2ZyB4bWxucz0iaHR0cDovL3d3dy53My5vcmcvMjAwMC9zdmciIHhtbG5zOnhsaW5rPSJodHRwOi8vd3d3LnczLm9yZy8xOTk5L3hsaW5rIiBjb250ZW50U3R5bGVUeXBlPSJ0ZXh0L2NzcyIgaGVpZ2h0PSI1NzRweCIgcHJlc2VydmVBc3BlY3RSYXRpbz0ibm9uZSIgc3R5bGU9IndpZHRoOjM1NXB4O2hlaWdodDo1NzRweDtiYWNrZ3JvdW5kOiNGRkZGRkY7IiB2ZXJzaW9uPSIxLjEiIHZpZXdCb3g9IjAgMCAzNTUgNTc0IiB3aWR0aD0iMzU1cHgiIHpvb21BbmRQYW49Im1hZ25pZnkiPjxkZWZzLz48Zz48dGV4dCBmaWxsPSIjMDAwMDAwIiBmb250LWZhbWlseT0ic2Fucy1zZXJpZiIgZm9udC1zaXplPSIxNCIgZm9udC13ZWlnaHQ9ImJvbGQiIGxlbmd0aEFkanVzdD0ic3BhY2luZyIgdGV4dExlbmd0aD0iMTk2IiB4PSI3OC41IiB5PSIyOC4yMzQ0Ij4mIzIxMzA2OyYjMjIzNTk7JiMzODE0MjsmIzM5MTM1OyYjMjE2OTc7JiMyODMzNTsmIzI4MzA0OyYjMjYyMzQ7JiMzMzAyMTsmIzIxNTEyOyYjMzI0MjI7JiMyNjEwMjsmIzI0MjA3OyYjMjIyNzA7PC90ZXh0PjxsaW5lIHN0eWxlPSJzdHJva2U6IzE4MTgxODtzdHJva2Utd2lkdGg6MC41O3N0cm9rZS1kYXNoYXJyYXk6NS4wLDUuMDsiIHgxPSIyMiIgeDI9IjIyIiB5MT0iMTE1Ljk2ODgiIHkyPSI0OTUuMDIzNCIvPjxsaW5lIHN0eWxlPSJzdHJva2U6IzE4MTgxODtzdHJva2Utd2lkdGg6MC41O3N0cm9rZS1kYXNoYXJyYXk6NS4wLDUuMDsiIHgxPSIxNzYiIHgyPSIxNzYiIHkxPSIxMTUuOTY4OCIgeTI9IjQ5NS4wMjM0Ii8+PGxpbmUgc3R5bGU9InN0cm9rZTojMTgxODE4O3N0cm9rZS13aWR0aDowLjU7c3Ryb2tlLWRhc2hhcnJheTo1LjAsNS4wOyIgeDE9IjMwNyIgeDI9IjMwNyIgeTE9IjExNS45Njg4IiB5Mj0iNDk1LjAyMzQiLz48dGV4dCBmaWxsPSIjMDAwMDAwIiBmb250LWZhbWlseT0ic2Fucy1zZXJpZiIgZm9udC1zaXplPSIxNCIgbGVuZ3RoQWRqdXN0PSJzcGFjaW5nIiB0ZXh0TGVuZ3RoPSIyOCIgeD0iNSIgeT0iMTE0LjIxODgiPiYjMjk5OTI7JiMyNTE0Mzs8L3RleHQ+PGVsbGlwc2UgY3g9IjIyIiBjeT0iNDkuNDg0NCIgZmlsbD0iI0UyRTJGMCIgcng9IjgiIHJ5PSI4IiBzdHlsZT0ic3Ryb2tlOiMxODE4MTg7c3Ryb2tlLXdpZHRoOjAuNTsiLz48cGF0aCBkPSJNMjIsNTcuNDg0NCBMMjIsODQuNDg0NCBNOSw2NS40ODQ0IEwzNSw2NS40ODQ0IE0yMiw4NC40ODQ0IEw5LDk5LjQ4NDQgTTIyLDg0LjQ4NDQgTDM1LDk5LjQ4NDQgIiBmaWxsPSJub25lIiBzdHlsZT0ic3Ryb2tlOiMxODE4MTg7c3Ryb2tlLXdpZHRoOjAuNTsiLz48dGV4dCBmaWxsPSIjMDAwMDAwIiBmb250LWZhbWlseT0ic2Fucy1zZXJpZiIgZm9udC1zaXplPSIxNCIgbGVuZ3RoQWRqdXN0PSJzcGFjaW5nIiB0ZXh0TGVuZ3RoPSIyOCIgeD0iNSIgeT0iNTA3LjI1NzgiPiYjMjk5OTI7JiMyNTE0Mzs8L3RleHQ+PGVsbGlwc2UgY3g9IjIyIiBjeT0iNTE3LjUwNzgiIGZpbGw9IiNFMkUyRjAiIHJ4PSI4IiByeT0iOCIgc3R5bGU9InN0cm9rZTojMTgxODE4O3N0cm9rZS13aWR0aDowLjU7Ii8+PHBhdGggZD0iTTIyLDUyNS41MDc4IEwyMiw1NTIuNTA3OCBNOSw1MzMuNTA3OCBMMzUsNTMzLjUwNzggTTIyLDU1Mi41MDc4IEw5LDU2Ny41MDc4IE0yMiw1NTIuNTA3OCBMMzUsNTY3LjUwNzggIiBmaWxsPSJub25lIiBzdHlsZT0ic3Ryb2tlOiMxODE4MTg7c3Ryb2tlLXdpZHRoOjAuNTsiLz48cmVjdCBmaWxsPSIjRTJFMkYwIiBoZWlnaHQ9IjI4Ljk4NDQiIHJ4PSIyLjUiIHJ5PSIyLjUiIHN0eWxlPSJzdHJva2U6IzE4MTgxODtzdHJva2Utd2lkdGg6MC41OyIgd2lkdGg9IjcwIiB4PSIxNDEiIHk9Ijg1Ljk4NDQiLz48dGV4dCBmaWxsPSIjMDAwMDAwIiBmb250LWZhbWlseT0ic2Fucy1zZXJpZiIgZm9udC1zaXplPSIxNCIgbGVuZ3RoQWRqdXN0PSJzcGFjaW5nIiB0ZXh0TGVuZ3RoPSI1NiIgeD0iMTQ4IiB5PSIxMDYuMjE4OCI+JiMyNjIzNDsmIzMzMDIxOyYjMjE1MTI7JiMzMjQyMjs8L3RleHQ+PHJlY3QgZmlsbD0iI0UyRTJGMCIgaGVpZ2h0PSIyOC45ODQ0IiByeD0iMi41IiByeT0iMi41IiBzdHlsZT0ic3Ryb2tlOiMxODE4MTg7c3Ryb2tlLXdpZHRoOjAuNTsiIHdpZHRoPSI3MCIgeD0iMTQxIiB5PSI0OTQuMDIzNCIvPjx0ZXh0IGZpbGw9IiMwMDAwMDAiIGZvbnQtZmFtaWx5PSJzYW5zLXNlcmlmIiBmb250LXNpemU9IjE0IiBsZW5ndGhBZGp1c3Q9InNwYWNpbmciIHRleHRMZW5ndGg9IjU2IiB4PSIxNDgiIHk9IjUxNC4yNTc4Ij4mIzI2MjM0OyYjMzMwMjE7JiMyMTUxMjsmIzMyNDIyOzwvdGV4dD48cmVjdCBmaWxsPSIjRTJFMkYwIiBoZWlnaHQ9IjI4Ljk4NDQiIHJ4PSIyLjUiIHJ5PSIyLjUiIHN0eWxlPSJzdHJva2U6IzE4MTgxODtzdHJva2Utd2lkdGg6MC41OyIgd2lkdGg9Ijg0IiB4PSIyNjUiIHk9Ijg1Ljk4NDQiLz48dGV4dCBmaWxsPSIjMDAwMDAwIiBmb250LWZhbWlseT0ic2Fucy1zZXJpZiIgZm9udC1zaXplPSIxNCIgbGVuZ3RoQWRqdXN0PSJzcGFjaW5nIiB0ZXh0TGVuZ3RoPSI3MCIgeD0iMjcyIiB5PSIxMDYuMjE4OCI+JiMyMTMwNjsmIzIyMzU5OyYjMzgxNDI7JiMzMjU5MzsmIzMyNDc2OzwvdGV4dD48cmVjdCBmaWxsPSIjRTJFMkYwIiBoZWlnaHQ9IjI4Ljk4NDQiIHJ4PSIyLjUiIHJ5PSIyLjUiIHN0eWxlPSJzdHJva2U6IzE4MTgxODtzdHJva2Utd2lkdGg6MC41OyIgd2lkdGg9Ijg0IiB4PSIyNjUiIHk9IjQ5NC4wMjM0Ii8+PHRleHQgZmlsbD0iIzAwMDAwMCIgZm9udC1mYW1pbHk9InNhbnMtc2VyaWYiIGZvbnQtc2l6ZT0iMTQiIGxlbmd0aEFkanVzdD0ic3BhY2luZyIgdGV4dExlbmd0aD0iNzAiIHg9IjI3MiIgeT0iNTE0LjI1NzgiPiYjMjEzMDY7JiMyMjM1OTsmIzM4MTQyOyYjMzI1OTM7JiMzMjQ3Njs8L3RleHQ+PHBvbHlnb24gZmlsbD0iIzE4MTgxOCIgcG9pbnRzPSIxNjQsMTQxLjg4MjgsMTc0LDE0NS44ODI4LDE2NCwxNDkuODgyOCwxNjgsMTQ1Ljg4MjgiIHN0eWxlPSJzdHJva2U6IzE4MTgxODtzdHJva2Utd2lkdGg6MS4wOyIvPjxsaW5lIHN0eWxlPSJzdHJva2U6IzE4MTgxODtzdHJva2Utd2lkdGg6MS4wOyIgeDE9IjIyIiB4Mj0iMTcwIiB5MT0iMTQ1Ljg4MjgiIHkyPSIxNDUuODgyOCIvPjx0ZXh0IGZpbGw9IiMwMDAwMDAiIGZvbnQtZmFtaWx5PSJzYW5zLXNlcmlmIiBmb250LXNpemU9IjEzIiBsZW5ndGhBZGp1c3Q9InNwYWNpbmciIHRleHRMZW5ndGg9IjEwNCIgeD0iMjkiIHk9IjE0Mi4yNTc4Ij4mIzIzMzg0OyYjMjA2NDg7JiMzOTEzNTsmIzIxNjk3OyYjMjgzMzU7JiMyODMwNDsmIzIwNDQ5OyYjMjQ2ODc7PC90ZXh0Pjxwb2x5Z29uIGZpbGw9IiMxODE4MTgiIHBvaW50cz0iMjk1LDE2OS43OTY5LDMwNSwxNzMuNzk2OSwyOTUsMTc3Ljc5NjksMjk5LDE3My43OTY5IiBzdHlsZT0ic3Ryb2tlOiMxODE4MTg7c3Ryb2tlLXdpZHRoOjEuMDsiLz48bGluZSBzdHlsZT0ic3Ryb2tlOiMxODE4MTg7c3Ryb2tlLXdpZHRoOjEuMDsiIHgxPSIxNzYiIHgyPSIzMDEiIHkxPSIxNzMuNzk2OSIgeTI9IjE3My43OTY5Ii8+PHRleHQgZmlsbD0iIzAwMDAwMCIgZm9udC1mYW1pbHk9InNhbnMtc2VyaWYiIGZvbnQtc2l6ZT0iMTMiIGxlbmd0aEFkanVzdD0ic3BhY2luZyIgdGV4dExlbmd0aD0iNzgiIHg9IjE4MyIgeT0iMTcwLjE3MTkiPiYjMjMzODQ7JiMyMDY0ODsmIzI4MzM1OyYjMjgzMDQ7JiMyNTk2ODsmIzI1NDU0OzwvdGV4dD48cG9seWdvbiBmaWxsPSIjMTgxODE4IiBwb2ludHM9IjE2NCwxOTcuNzEwOSwxNzQsMjAxLjcxMDksMTY0LDIwNS43MTA5LDE2OCwyMDEuNzEwOSIgc3R5bGU9InN0cm9rZTojMTgxODE4O3N0cm9rZS13aWR0aDoxLjA7Ii8+PGxpbmUgc3R5bGU9InN0cm9rZTojMTgxODE4O3N0cm9rZS13aWR0aDoxLjA7IiB4MT0iMjIiIHgyPSIxNzAiIHkxPSIyMDEuNzEwOSIgeTI9IjIwMS43MTA5Ii8+PHRleHQgZmlsbD0iIzAwMDAwMCIgZm9udC1mYW1pbHk9InNhbnMtc2VyaWYiIGZvbnQtc2l6ZT0iMTMiIGxlbmd0aEFkanVzdD0ic3BhY2luZyIgdGV4dExlbmd0aD0iOTEiIHg9IjI5IiB5PSIxOTguMDg1OSI+JiMzNTc2MDsmIzI0NDA1OyYjMjk5ODM7JiMyMDEzNTsmIzIxODMwOyYjMzU3NDY7JiMyMTMzMzs8L3RleHQ+PGxpbmUgc3R5bGU9InN0cm9rZTojMTgxODE4O3N0cm9rZS13aWR0aDoxLjA7IiB4MT0iMTc2IiB4Mj0iMjE4IiB5MT0iMjI5LjYyNSIgeTI9IjIyOS42MjUiLz48bGluZSBzdHlsZT0ic3Ryb2tlOiMxODE4MTg7c3Ryb2tlLXdpZHRoOjEuMDsiIHgxPSIyMTgiIHgyPSIyMTgiIHkxPSIyMjkuNjI1IiB5Mj0iMjQyLjYyNSIvPjxsaW5lIHN0eWxlPSJzdHJva2U6IzE4MTgxODtzdHJva2Utd2lkdGg6MS4wOyIgeDE9IjE3NyIgeDI9IjIxOCIgeTE9IjI0Mi42MjUiIHkyPSIyNDIuNjI1Ii8+PHBvbHlnb24gZmlsbD0iIzE4MTgxOCIgcG9pbnRzPSIxODcsMjM4LjYyNSwxNzcsMjQyLjYyNSwxODcsMjQ2LjYyNSwxODMsMjQyLjYyNSIgc3R5bGU9InN0cm9rZTojMTgxODE4O3N0cm9rZS13aWR0aDoxLjA7Ii8+PHRleHQgZmlsbD0iIzAwMDAwMCIgZm9udC1mYW1pbHk9InNhbnMtc2VyaWYiIGZvbnQtc2l6ZT0iMTMiIGxlbmd0aEFkanVzdD0ic3BhY2luZyIgdGV4dExlbmd0aD0iMTE3IiB4PSIxODMiIHk9IjIyNiI+JiMyODE1NTsmIzIxMTUyOyYjMjk5ODM7JiMyMDEzNTsmIzIxODMwOyYjMzU3NDY7JiMyMTMzMzsmIzIwNDQ5OyYjMjQ2ODc7PC90ZXh0Pjxwb2x5Z29uIGZpbGw9IiMxODE4MTgiIHBvaW50cz0iMTY0LDI2Ni41MzkxLDE3NCwyNzAuNTM5MSwxNjQsMjc0LjUzOTEsMTY4LDI3MC41MzkxIiBzdHlsZT0ic3Ryb2tlOiMxODE4MTg7c3Ryb2tlLXdpZHRoOjEuMDsiLz48bGluZSBzdHlsZT0ic3Ryb2tlOiMxODE4MTg7c3Ryb2tlLXdpZHRoOjEuMDsiIHgxPSIyMiIgeDI9IjE3MCIgeTE9IjI3MC41MzkxIiB5Mj0iMjcwLjUzOTEiLz48dGV4dCBmaWxsPSIjMDAwMDAwIiBmb250LWZhbWlseT0ic2Fucy1zZXJpZiIgZm9udC1zaXplPSIxMyIgbGVuZ3RoQWRqdXN0PSJzcGFjaW5nIiB0ZXh0TGVuZ3RoPSI5MSIgeD0iMjkiIHk9IjI2Ni45MTQxIj4mIzM1NzYwOyYjMjQ0MDU7JiMyMDk5ODsmIzM4MTQ0OyYjMjE4MzA7JiMzNTc0NjsmIzIxMzMzOzwvdGV4dD48bGluZSBzdHlsZT0ic3Ryb2tlOiMxODE4MTg7c3Ryb2tlLXdpZHRoOjEuMDsiIHgxPSIxNzYiIHgyPSIyMTgiIHkxPSIyOTguNDUzMSIgeTI9IjI5OC40NTMxIi8+PGxpbmUgc3R5bGU9InN0cm9rZTojMTgxODE4O3N0cm9rZS13aWR0aDoxLjA7IiB4MT0iMjE4IiB4Mj0iMjE4IiB5MT0iMjk4LjQ1MzEiIHkyPSIzMTEuNDUzMSIvPjxsaW5lIHN0eWxlPSJzdHJva2U6IzE4MTgxODtzdHJva2Utd2lkdGg6MS4wOyIgeDE9IjE3NyIgeDI9IjIxOCIgeTE9IjMxMS40NTMxIiB5Mj0iMzExLjQ1MzEiLz48cG9seWdvbiBmaWxsPSIjMTgxODE4IiBwb2ludHM9IjE4NywzMDcuNDUzMSwxNzcsMzExLjQ1MzEsMTg3LDMxNS40NTMxLDE4MywzMTEuNDUzMSIgc3R5bGU9InN0cm9rZTojMTgxODE4O3N0cm9rZS13aWR0aDoxLjA7Ii8+PHRleHQgZmlsbD0iIzAwMDAwMCIgZm9udC1mYW1pbHk9InNhbnMtc2VyaWYiIGZvbnQtc2l6ZT0iMTMiIGxlbmd0aEFkanVzdD0ic3BhY2luZyIgdGV4dExlbmd0aD0iMTE3IiB4PSIxODMiIHk9IjI5NC44MjgxIj4mIzI4MTU1OyYjMjExNTI7JiMyMDk5ODsmIzM4MTQ0OyYjMjE4MzA7JiMzNTc0NjsmIzIxMzMzOyYjMjA0NDk7JiMyNDY4Nzs8L3RleHQ+PHBvbHlnb24gZmlsbD0iIzE4MTgxOCIgcG9pbnRzPSIxNjQsMzM1LjM2NzIsMTc0LDMzOS4zNjcyLDE2NCwzNDMuMzY3MiwxNjgsMzM5LjM2NzIiIHN0eWxlPSJzdHJva2U6IzE4MTgxODtzdHJva2Utd2lkdGg6MS4wOyIvPjxsaW5lIHN0eWxlPSJzdHJva2U6IzE4MTgxODtzdHJva2Utd2lkdGg6MS4wOyIgeDE9IjIyIiB4Mj0iMTcwIiB5MT0iMzM5LjM2NzIiIHkyPSIzMzkuMzY3MiIvPjx0ZXh0IGZpbGw9IiMwMDAwMDAiIGZvbnQtZmFtaWx5PSJzYW5zLXNlcmlmIiBmb250LXNpemU9IjEzIiBsZW5ndGhBZGp1c3Q9InNwYWNpbmciIHRleHRMZW5ndGg9IjkxIiB4PSIyOSIgeT0iMzM1Ljc0MjIiPiYjMzU3NjA7JiMyNDQwNTsmIzMyNDYzOyYjMzgxNDQ7JiMyMTgzMDsmIzM1NzQ2OyYjMjEzMzM7PC90ZXh0PjxsaW5lIHN0eWxlPSJzdHJva2U6IzE4MTgxODtzdHJva2Utd2lkdGg6MS4wOyIgeDE9IjE3NiIgeDI9IjIxOCIgeTE9IjM2Ny4yODEzIiB5Mj0iMzY3LjI4MTMiLz48bGluZSBzdHlsZT0ic3Ryb2tlOiMxODE4MTg7c3Ryb2tlLXdpZHRoOjEuMDsiIHgxPSIyMTgiIHgyPSIyMTgiIHkxPSIzNjcuMjgxMyIgeTI9IjM4MC4yODEzIi8+PGxpbmUgc3R5bGU9InN0cm9rZTojMTgxODE4O3N0cm9rZS13aWR0aDoxLjA7IiB4MT0iMTc3IiB4Mj0iMjE4IiB5MT0iMzgwLjI4MTMiIHkyPSIzODAuMjgxMyIvPjxwb2x5Z29uIGZpbGw9IiMxODE4MTgiIHBvaW50cz0iMTg3LDM3Ni4yODEzLDE3NywzODAuMjgxMywxODcsMzg0LjI4MTMsMTgzLDM4MC4yODEzIiBzdHlsZT0ic3Ryb2tlOiMxODE4MTg7c3Ryb2tlLXdpZHRoOjEuMDsiLz48dGV4dCBmaWxsPSIjMDAwMDAwIiBmb250LWZhbWlseT0ic2Fucy1zZXJpZiIgZm9udC1zaXplPSIxMyIgbGVuZ3RoQWRqdXN0PSJzcGFjaW5nIiB0ZXh0TGVuZ3RoPSIxMTciIHg9IjE4MyIgeT0iMzYzLjY1NjMiPiYjMjgxNTU7JiMyMTE1MjsmIzMyNDYzOyYjMzgxNDQ7JiMyMTgzMDsmIzM1NzQ2OyYjMjEzMzM7JiMyMDQ0OTsmIzI0Njg3OzwvdGV4dD48cG9seWdvbiBmaWxsPSIjMTgxODE4IiBwb2ludHM9IjE2NCw0MDQuMTk1MywxNzQsNDA4LjE5NTMsMTY0LDQxMi4xOTUzLDE2OCw0MDguMTk1MyIgc3R5bGU9InN0cm9rZTojMTgxODE4O3N0cm9rZS13aWR0aDoxLjA7Ii8+PGxpbmUgc3R5bGU9InN0cm9rZTojMTgxODE4O3N0cm9rZS13aWR0aDoxLjA7IiB4MT0iMjIiIHgyPSIxNzAiIHkxPSI0MDguMTk1MyIgeTI9IjQwOC4xOTUzIi8+PHRleHQgZmlsbD0iIzAwMDAwMCIgZm9udC1mYW1pbHk9InNhbnMtc2VyaWYiIGZvbnQtc2l6ZT0iMTMiIGxlbmd0aEFkanVzdD0ic3BhY2luZyIgdGV4dExlbmd0aD0iMTMwIiB4PSIyOSIgeT0iNDA0LjU3MDMiPiYjMzk1NjQ7JiMzNTc3NzsmIzI4MzM1OyYjMjgzMDQ7JiMyMDQ0OTsmIzI0Njg3OyYjMzAzNDA7JiMzMDQ5NTsmIzIzNDU0OyYjMjQ2MTU7PC90ZXh0Pjxwb2x5Z29uIGZpbGw9IiMxODE4MTgiIHBvaW50cz0iMjk1LDQzMi4xMDk0LDMwNSw0MzYuMTA5NCwyOTUsNDQwLjEwOTQsMjk5LDQzNi4xMDk0IiBzdHlsZT0ic3Ryb2tlOiMxODE4MTg7c3Ryb2tlLXdpZHRoOjEuMDsiLz48bGluZSBzdHlsZT0ic3Ryb2tlOiMxODE4MTg7c3Ryb2tlLXdpZHRoOjEuMDsiIHgxPSIxNzYiIHgyPSIzMDEiIHkxPSI0MzYuMTA5NCIgeTI9IjQzNi4xMDk0Ii8+PHRleHQgZmlsbD0iIzAwMDAwMCIgZm9udC1mYW1pbHk9InNhbnMtc2VyaWYiIGZvbnQtc2l6ZT0iMTMiIGxlbmd0aEFkanVzdD0ic3BhY2luZyIgdGV4dExlbmd0aD0iNzgiIHg9IjE4MyIgeT0iNDMyLjQ4NDQiPiYjMzM3MTk7JiMyMTQ2MjsmIzI4MzM1OyYjMjgzMDQ7JiMyNTk2ODsmIzI1NDU0OzwvdGV4dD48bGluZSBzdHlsZT0ic3Ryb2tlOiMxODE4MTg7c3Ryb2tlLXdpZHRoOjEuMDsiIHgxPSIxNzYiIHgyPSIyMTgiIHkxPSI0NjQuMDIzNCIgeTI9IjQ2NC4wMjM0Ii8+PGxpbmUgc3R5bGU9InN0cm9rZTojMTgxODE4O3N0cm9rZS13aWR0aDoxLjA7IiB4MT0iMjE4IiB4Mj0iMjE4IiB5MT0iNDY0LjAyMzQiIHkyPSI0NzcuMDIzNCIvPjxsaW5lIHN0eWxlPSJzdHJva2U6IzE4MTgxODtzdHJva2Utd2lkdGg6MS4wOyIgeDE9IjE3NyIgeDI9IjIxOCIgeTE9IjQ3Ny4wMjM0IiB5Mj0iNDc3LjAyMzQiLz48cG9seWdvbiBmaWxsPSIjMTgxODE4IiBwb2ludHM9IjE4Nyw0NzMuMDIzNCwxNzcsNDc3LjAyMzQsMTg3LDQ4MS4wMjM0LDE4Myw0NzcuMDIzNCIgc3R5bGU9InN0cm9rZTojMTgxODE4O3N0cm9rZS13aWR0aDoxLjA7Ii8+PHRleHQgZmlsbD0iIzAwMDAwMCIgZm9udC1mYW1pbHk9InNhbnMtc2VyaWYiIGZvbnQtc2l6ZT0iMTMiIGxlbmd0aEFkanVzdD0ic3BhY2luZyIgdGV4dExlbmd0aD0iMTA0IiB4PSIxODMiIHk9IjQ2MC4zOTg0Ij4mIzM5NTY0OyYjMzU3Nzc7JiMyNTk2ODsmIzI1NDU0OyYjMzAzNDA7JiMzMDQ5NTsmIzIzNDU0OyYjMjQ2MTU7PC90ZXh0PjwhLS1TUkM9W2RQNUZRbmYxNjhWbHlvYjZKeXIxanVRUzkwZ3NKVWNYUWFhWUVPX1pNZVVpRXg4eEhrV2ZRT2o4WUQ2V25nSERRX3owYks4cmZtZWhmYnljQ3hqLVl3b28xN1ViclVPb21wMl92dHRVY1RVTmFSRDRiTTVpUi1UTEFsdUl2WFdodzY1OXFiMGYtOWdtTjM1VHI2S0RLdk45QVdqWWNmVEdJTFRHTWZfazBNOVZ3ODRpckc4NTFRY2ljNVVhV3oxNnlCNks4SmUzbUVTS1Z4NExVeFFyN05nNGdLQXJEUllQalNsMXNJNG9Nd0VSd1FXZGxGd0ZpNHhVb0U3R1hla0E5bkY5dnlkNGhmRkY4WW43Xzc2ZzhhcHpLRzBPT09lQy1PZDFGeEtkWlBsOXptdmw3MGJaODhvd2szSWlUc0RVaHZaNjN6Ny1wT3FRX3RXMzBDQUNRajFpemFIYjI5NEVLX090VzBCSTZDNmFPQnlMLWtUMV9wSW9heFVsZHpmd3BPUlRzTmtwRUp1cEhyVXAtMUU1dWRzU0dxSERvQW40ak5xMGZYOE9ZQmVobUozYWxveHVzenZ5cnhUX2xlZ1owTjA3Uk5BWHczdGpsQlByQlFoemx2a2lfWktWanluY3Z6UmV5YlJQd2RfWnJUUVluZWs5dU9XVlZfNVdKZXpCTkJuSWRaR0ZfemxibUxQcGNRRlFHcm1VUjliaHlsRjQ2aFpjUDd2dVJydnJVRi1wRUVva0RaRmhUQ1hodnd3UEJNdE15U3hJeXlPeF0tLT48L2c+PC9zdmc+;" vertex="1" parent="1">
            <mxGeometry x="-260" y="-2970" width="355" height="574" as="geometry" />
          </mxCell>
        </UserObject>
      </root>
    </mxGraphModel>
  </diagram>
</mxfile>
